<?xml version="1.0"?><svg width="640" height="480" xmlns="http://www.w3.org/2000/svg">
 <title>Road Map</title>
 <g>
  <title>Layer 1</title>
  <g id="Ulice">
   <path fill="none" stroke="#050505" stroke-width="5" id="path10" d="m58.605,43.903999l128.508999,223.721001l74.563004,262.90802"/>
   <path fill="none" stroke="#000000" stroke-width="5" id="path12" d="m36.317001,531.770996l80.485001,-148.588989l-4.953003,-26.003021l91.630005,-38.385986l18.115997,-15.182007l29.966003,-1.156006l22.104004,-11.092987l272.806976,230.502991"/>
   <g id="g14">
    <g id="g16">
     <path fill="none" id="path18" d="m4.123,248.212997c45.814,-13.619995 89.153001,-28.479004 136.207002,-37.147003c50.768005,-8.666992 65.626999,-74.293991 127.538986,-111.441994c61.911011,-37.146 108.96402,-95.344 108.96402,-95.344"/>
     <path fill="#038dff" id="path20" d="m4.9,252.621994c30.039999,-8.946991 59.862001,-18.641998 90.161996,-26.690994c15.216003,-4.041992 30.565002,-7.574997 46.044006,-10.455994c8.985992,-1.673004 17.39299,-4.921005 25.123001,-9.805008c16.376999,-10.347992 28.567993,-26.078995 40.514999,-41.018005c14.470001,-18.093994 29.171997,-35.863998 47.483002,-50.25499c14.87999,-11.694 31.807999,-20.604004 46.979996,-31.976006c14.583008,-10.931 28.377991,-22.906998 41.570007,-35.472996c13.242981,-12.612003 26.199005,-25.871002 37.722992,-40.100002c3.640991,-4.494 -3.718994,-9.599 -7.334015,-5.135c-20.727997,25.591001 -45.487,48.607 -71.300995,68.924001c-20.910004,16.457001 -44.953003,28.512001 -64.667984,46.449997c-16.542007,15.049995 -30.014008,32.955009 -44.073013,50.237007c-8.219986,10.104996 -16.845993,19.983994 -27.307999,27.840988c-11.940994,8.96701 -25.067001,11.098007 -39.346992,14.075012c-41.774002,8.707993 -82.284,22.399994 -123.124002,34.563995c-5.465,1.628998 -3.972,10.464996 1.555,8.817993z"/>
    </g>
   </g>
   <path fill="none" stroke="#000000" stroke-width="5" id="path24" d="m273.069,291.552002l288.261993,-165.924004"/>
   <path fill="none" stroke="#000000" stroke-width="3" id="path26" d="m365.514008,238.716003l-133.555008,-231.959003"/>
   <path fill="none" stroke="#000000" stroke-width="3" id="path28" d="m112.101997,357.602997l-40.016998,44.196991"/>
   <path fill="none" stroke="#000000" stroke-width="3" id="path30" d="m49.938,376.98999l43.948002,49.001007"/>
   <path fill="none" stroke="#000000" stroke-width="3" id="path32" d="m93.406998,425.369995l80.98201,92.619995l75.401993,-25.843994"/>
   <path fill="none" stroke="#000000" stroke-width="3" id="path34" d="m348.921997,248.110992l26.002991,58.197998l-24.093994,49.632019"/>
   <path fill="none" stroke="#000000" stroke-width="3" id="path36" d="m371.139008,374.268005l-45.072998,88.65799l-76.771011,29.221008"/>
   <path fill="none" stroke="#000000" stroke-width="3" id="path38" d="m326.562012,335.632996l-33.184998,52.006012l-63.894012,26.5"/>
   <path fill="none" stroke="#000000" stroke-width="3" id="path40" d="m293.549988,387.56601l51.090027,40.190979"/>
   <path fill="none" stroke="#000000" stroke-width="3" id="path42" d="m314.674011,404.479004l-13.867004,26.746002l-32.195007,9.41098"/>
   <path fill="none" stroke="#000000" stroke-width="3" id="path44" d="m180.945007,227.164001l18.820999,29.717987l51.014999,57.455017l27.240997,4.457001l22.289001,19.315979"/>
   <path fill="none" stroke="#000000" stroke-width="3" id="path46" d="m139.339996,345.540009l15.848999,58.938995l40.605011,77.263l3.806992,27.56601"/>
   <path fill="none" stroke="#000000" stroke-width="3" id="path48" d="m204.223007,422.312012l-33.289001,11.741974"/>
   <path fill="none" stroke="#000000" stroke-width="3" id="path50" d="m136.367996,217.257004l34.669998,61.417984l28.727005,78.751007l12.382004,-2.972992"/>
   <path fill="none" stroke="#000000" stroke-width="3" id="path52" d="m175.496994,292.541992l-42.597,20.804016l-11.391991,39.623993"/>
   <path fill="none" stroke="#000000" stroke-width="3" id="path54" d="m153.207993,339.10199l-10.400986,-31.699982"/>
   <path fill="none" stroke="#000000" stroke-width="3" id="path56" d="m155.684998,301.95401l22.783997,61.911987l21.792999,-6.437988"/>
   <path fill="none" stroke="#000000" stroke-width="3" id="path58" d="m121.509003,299.47699l64.884003,-29.717987l24.764999,-26.251007l-37.147003,-43.089996"/>
   <path fill="none" stroke="#000000" stroke-width="3" id="path60" d="m139.835007,291.058014l-15.354004,-40.615021"/>
   <path fill="none" stroke="#000000" stroke-width="3" id="path62" d="m191.841003,359.903015l12.877991,46.062988l19.812012,-6.440002"/>
   <path fill="none" stroke="#000000" stroke-width="3" id="path64" d="m218.091995,277.684998l13.373001,-12.382996l10.897003,-31.203995l-0.496002,-25.755005l12.878998,-63.893997"/>
   <path fill="none" stroke="#000000" stroke-width="3" id="path66" d="m255.238998,296.01001l-42.595001,-51.511017l10.895996,-8.914993l12.877014,14.858002"/>
   <path fill="none" stroke="#000000" stroke-width="3" id="path68" d="m125.967003,161.785004l37.642998,-42.595001l18.326004,-113.919003"/>
   <path fill="none" stroke="#000000" stroke-width="3" id="path70" d="m74.703003,72.384003l11.143997,-28.480003"/>
  </g>
  <g id="Layer_2_1_">
   <path fill="none" stroke="#ffffff" id="path75" d="m58.605,43.903999l128.508999,223.721001l74.563004,262.90802"/>
   <path fill="none" stroke="#ffffff" id="path77" d="m36.317001,531.770996l80.485001,-148.588989l-4.953003,-26.003021l91.630005,-38.385986l18.115997,-15.182007l29.966003,-1.156006l22.104004,-11.092987l272.806976,230.502991"/>
   <g id="g79">
    <g id="g81">
     <path fill="none" id="path83" d="m4.123,248.212997c45.814,-13.619995 89.153001,-28.479004 136.207002,-37.147003c50.768005,-8.666992 65.626999,-74.293991 127.538986,-111.441994c61.911011,-37.146 108.96402,-95.344 108.96402,-95.344"/>
     <path fill="#ffffff" id="path85" d="m4.382,249.682999c30.039001,-8.947998 59.860996,-18.641998 90.161999,-26.690994c15.216003,-4.042007 30.565002,-7.574997 46.043999,-10.456009c8.740997,-1.626999 16.839996,-4.810989 24.359009,-9.561996c15.897995,-10.044998 27.761993,-25.541 39.35199,-40.033997c14.621002,-18.281998 29.497009,-36.278999 47.997009,-50.819c14.878983,-11.694 31.807999,-20.604004 46.978989,-31.976006c14.584015,-10.931 28.378998,-22.906998 41.571014,-35.472996c13.05899,-12.438999 25.84198,-25.504002 37.207977,-39.537001c1.213013,-1.498 -1.23999,-3.2 -2.444977,-1.712c-20.886017,25.786999 -45.800995,49.014 -71.813995,69.489002c-20.910004,16.458 -44.952026,28.510994 -64.668015,46.450996c-16.354004,14.879997 -29.658997,32.586006 -43.559006,49.672005c-8.373993,10.292999 -17.164993,20.403 -27.821991,28.405991c-12.393005,9.307007 -25.932007,11.646011 -40.759003,14.737c-41.774002,8.708008 -82.284,22.400009 -123.124,34.564011c-1.821,0.544998 -1.323,3.488998 0.519,2.940994z"/>
    </g>
   </g>
   <path fill="none" stroke="#ffffff" id="path89" d="m273.069,291.552002l288.261993,-165.924004"/>
   <path fill="none" stroke="#ffffff" id="path91" d="m365.514008,238.716003l-133.555008,-231.959003"/>
   <path fill="none" stroke="#ffffff" id="path93" d="m112.101997,357.602997l-40.016998,44.196991"/>
   <path fill="none" stroke="#ffffff" id="path95" d="m49.938,376.98999l43.948002,49.001007"/>
   <path fill="none" stroke="#ffffff" id="path97" d="m93.406998,425.369995l80.98201,92.619995l75.401993,-25.843994"/>
   <path fill="none" stroke="#ffffff" id="path99" d="m348.921997,248.110992l26.002991,58.197998l-24.093994,49.632019"/>
   <path fill="none" stroke="#ffffff" id="path101" d="m371.139008,374.268005l-45.072998,88.65799l-76.771011,29.221008"/>
   <path fill="none" stroke="#ffffff" id="path103" d="m326.562012,335.632996l-33.184998,52.006012l-63.894012,26.5"/>
   <path fill="none" stroke="#ffffff" id="path105" d="m293.549988,387.56601l51.090027,40.190979"/>
   <path fill="none" stroke="#ffffff" id="path107" d="m314.674011,404.479004l-13.867004,26.746002l-32.195007,9.41098"/>
   <path fill="none" stroke="#ffffff" id="path109" d="m180.945007,227.164001l18.820999,29.717987l51.014999,57.455017l27.240997,4.457001l22.289001,19.315979"/>
   <path fill="none" stroke="#ffffff" id="path111" d="m139.339996,345.540009l15.848999,58.938995l40.605011,77.263l3.806992,27.56601"/>
   <path fill="none" stroke="#ffffff" id="path113" d="m204.223007,422.312012l-33.289001,11.741974"/>
   <path fill="none" stroke="#ffffff" id="path115" d="m136.367996,217.257004l34.669998,61.417984l28.727005,78.751007l12.382004,-2.972992"/>
   <path fill="none" stroke="#ffffff" id="path117" d="m175.496994,292.541992l-42.597,20.804016l-11.391991,39.623993"/>
   <path fill="none" stroke="#ffffff" id="path119" d="m153.207993,339.10199l-10.400986,-31.699982"/>
   <path fill="none" stroke="#ffffff" id="path121" d="m155.684998,301.95401l22.783997,61.911987l21.792999,-6.437988"/>
   <path fill="none" stroke="#ffffff" id="path123" d="m121.509003,299.47699l64.884003,-29.717987l24.764999,-26.251007l-37.147003,-43.089996"/>
   <path fill="none" stroke="#ffffff" id="path125" d="m139.835007,291.058014l-15.354004,-40.615021"/>
   <path fill="none" stroke="#ffffff" id="path127" d="m191.841003,359.903015l12.877991,46.062988l19.812012,-6.440002"/>
   <path fill="none" stroke="#ffffff" id="path129" d="m218.091995,277.684998l13.373001,-12.382996l10.897003,-31.203995l-0.496002,-25.755005l12.878998,-63.893997"/>
   <path fill="none" stroke="#ffffff" id="path131" d="m255.238998,296.01001l-42.595001,-51.511017l10.895996,-8.914993l12.877014,14.858002"/>
   <path fill="none" stroke="#ffffff" id="path133" d="m125.967003,161.785004l37.642998,-42.595001l18.326004,-113.919003"/>
   <path fill="none" stroke="#ffffff" id="path135" d="m74.703003,72.384003l11.143997,-28.480003"/>
  </g>
 </g>
</svg>