<?xml version="1.0" encoding="utf-8"?>
<!-- Generator: Adobe Illustrator 22.1.0, SVG Export Plug-In . SVG Version: 6.00 Build 0)  -->
<svg version="1.1" id="圖層_1" xmlns="http://www.w3.org/2000/svg" xmlns:xlink="http://www.w3.org/1999/xlink" x="0px" y="0px"
	 viewBox="0 0 612 792" style="enable-background:new 0 0 612 792;" xml:space="preserve">
<style type="text/css">
	.st0{fill:none;stroke:#000000;stroke-width:1.44;}
	.st1{fill:none;stroke:#000000;stroke-width:0.72;}
</style>
<path class="st0" d="M237.6,154.8c-1.3,16.9-4.2,33.7-8.6,50"/>
<path class="st0" d="M284.9,216.8c0.3-3.1-3.2-6.6-6.3-6.3c-3.1-0.3-6.6,3.2-6.3,6.3c-0.3,3.1,3.2,6.6,6.3,6.3
	C281.7,223.5,285.2,219.9,284.9,216.8z"/>
<path class="st0" d="M235,228.9c-3,0.3-6.3-3.1-6-6"/>
<path class="st0" d="M295.1,222.8c0.3,3-3.1,6.3-6,6H235"/>
<path class="st0" d="M295.1,204.8c-4.4-16.3-7.3-33.2-8.6-50"/>
<path class="st0" d="M233.9,84.7c4,21.5,5.4,43.7,4,65.6"/>
<path class="st0" d="M251.8,216.8c0.3-3.1-3.2-6.6-6.3-6.3c-3.1-0.3-6.6,3.2-6.3,6.3c-0.3,3.1,3.2,6.6,6.3,6.3
	C248.6,223.5,252.1,219.9,251.8,216.8z"/>
<path class="st0" d="M295.1,204.8v18"/>
<path class="st0" d="M229,222.8v-18"/>
<path class="st0" d="M286.1,150.3c-1.3-22,0-44.3,4.1-65.9"/>
<path class="st0" d="M242.3,84.7c10.9,7.9,29,7.8,39.9-0.2"/>
<path class="st0" d="M281.9,24.4c-10.9-7.9-29-7.8-39.9,0.2c11.6-7.2,28.2-7.3,38.8-0.1"/>
<path class="st0" d="M281,84.5c-10.5,7.2-27.1,7.3-37.7,0.1"/>
<path class="st0" d="M309.6,35.4l0.9,0"/>
<path class="st0" d="M152.3,36l2,0"/>
<path class="st0" d="M154.5,73.9l-1.4,0"/>
<path class="st0" d="M152.4,66l2,0"/>
<path class="st0" d="M307.8,33.7l1.7,1.7"/>
<path class="st0" d="M309.7,65.4l1.2,0"/>
<path class="st0" d="M310.8,73.3l-1.1,0"/>
<path class="st0" d="M157,46l-2.7-2.2"/>
<path class="st0" d="M306.5,63c1.2,0.4,2.4,1.3,3.2,2.4"/>
<path class="st0" d="M156.1,75.5l-1.7-1.6"/>
<path class="st0" d="M309.6,43.2c-1,1.4-2.6,2.5-4.3,2.7"/>
<path class="st0" d="M311.2,43.2l-1.6,0"/>
<path class="st0" d="M154.4,66c1-1.5,2.8-2.6,4.6-2.8"/>
<path class="st0" d="M154.3,36c0.8-1.2,2.1-2.1,3.5-2.5"/>
<path class="st0" d="M309.7,73.3l-2.7,2.2"/>
<path class="st0" d="M154.3,43.8l-1.7,0"/>
<path class="st0" d="M171.7,150.3V24.7"/>
<path class="st0" d="M139.4,33.7v41.6"/>
<path class="st0" d="M88.2,93.4l9-9"/>
<path class="st0" d="M411.9,129.1c-0.2-2.3,2.3-4.8,4.6-4.6c2.3-0.2,4.8,2.3,4.6,4.6c0.2,2.3-2.3,4.8-4.6,4.6
	C414.3,133.9,411.7,131.3,411.9,129.1z"/>
<path class="st0" d="M141.4,129.1c-0.2-2.3,2.3-4.8,4.6-4.6c2.3-0.2,4.8,2.3,4.6,4.6c0.2,2.3-2.3,4.8-4.6,4.6
	C143.7,133.9,141.2,131.3,141.4,129.1z"/>
<path class="st0" d="M151.1,69.3c-0.3-3.1,3.2-6.6,6.3-6.3c3.1-0.3,6.6,3.2,6.3,6.3c0.3,3.1-3.2,6.6-6.3,6.3
	C154.3,75.9,150.8,72.4,151.1,69.3z"/>
<path class="st0" d="M372.9,129.1c-0.2-2.3,2.3-4.8,4.6-4.6c2.3-0.2,4.8,2.3,4.6,4.6c0.2,2.3-2.3,4.8-4.6,4.6
	C375.2,133.9,372.6,131.3,372.9,129.1z"/>
<path class="st0" d="M354.6,93.1v57.1"/>
<path class="st0" d="M151.1,39.7c-0.3-3.1,3.2-6.6,6.3-6.3c3.1-0.3,6.6,3.2,6.3,6.3c0.3,3.1-3.2,6.6-6.3,6.3
	C154.3,46.3,150.8,42.8,151.1,39.7z"/>
<path class="st0" d="M430.3,24.9l9,9"/>
<path class="st0" d="M291.6,83.3v0.8"/>
<path class="st0" d="M139.4,33.7l9-9"/>
<path class="st0" d="M102.3,129.1c-0.2-2.3,2.3-4.8,4.6-4.6c2.3-0.2,4.8,2.3,4.6,4.6c0.2,2.3-2.3,4.8-4.6,4.6
	C104.7,133.9,102.1,131.3,102.3,129.1z"/>
<path class="st0" d="M439.4,150.3V33.9"/>
<path class="st0" d="M171.7,24.7h-23.3"/>
<path class="st0" d="M130.3,84.4l9-9"/>
<path class="st0" d="M88.2,93.4v56.9"/>
<path class="st0" d="M430.3,24.9H291.6"/>
<path class="st0" d="M299.6,39.7c-0.3-3.1,3.2-6.6,6.3-6.3c3.1-0.3,6.6,3.2,6.3,6.3c0.3,3.1-3.2,6.6-6.3,6.3
	C302.8,46.3,299.3,42.8,299.6,39.7z"/>
<path class="st0" d="M130.3,84.4H97.2"/>
<path class="st0" d="M299.6,69.3c-0.3-3.1,3.2-6.6,6.3-6.3c3.1-0.3,6.6,3.2,6.3,6.3c0.3,3.1-3.2,6.6-6.3,6.3
	C302.8,75.9,299.3,72.4,299.6,69.3z"/>
<path class="st0" d="M291.6,84.1h54"/>
<path class="st0" d="M291.6,24.9v0.9"/>
<path class="st0" d="M354.6,93.1l-9-9"/>
<path class="st0" d="M100.1,559.4v-1"/>
<path class="st0" d="M423.3,559.4v-1"/>
<path class="st0" d="M366.2,559.4v-1"/>
<path class="st0" d="M157.2,559.4v-1"/>
<path class="st0" d="M326.5,193.9h-4.8"/>
<path class="st0" d="M196.3,193.9h4.8"/>
<path class="st0" d="M296.7,56.6l12,0"/>
<path class="st0" d="M296.6,52.1l12,0"/>
<path class="st0" d="M296.7,56.6l12,0"/>
<path class="st0" d="M296.6,52.1l12,0"/>
<path class="st0" d="M296.7,61.2l12,0"/>
<path class="st0" d="M296.6,47.6l12,0"/>
<path class="st0" d="M464.8,243.4h1.5"/>
<path class="st0" d="M464.8,216.4h1.5"/>
<path class="st0" d="M56.5,243.4H58"/>
<path class="st0" d="M56.5,216.4H58"/>
<path class="st0" d="M181.3,435h6"/>
<path class="st0" d="M181.3,209.6h6"/>
<path class="st0" d="M335.5,435h6"/>
<path class="st0" d="M334,214.9h-6.9"/>
<path class="st0" d="M334,470.4h1.5"/>
<path class="st0" d="M327.1,419.9l-0.6-0.6"/>
<path class="st0" d="M463,214.9H453"/>
<path class="st0" d="M195.7,265.4l0.6,0.6"/>
<path class="st0" d="M195.7,470.4h-6.9"/>
<path class="st0" d="M326.5,419.3h-4.8"/>
<path class="st0" d="M463,470.4H453"/>
<path class="st0" d="M327.1,265.4l-0.6,0.6"/>
<path class="st0" d="M69.8,440.3h-9.9"/>
<path class="st0" d="M321.1,265.4l0.6,0.6"/>
<path class="st0" d="M201.2,266h-4.8"/>
<path class="st0" d="M340,253.8h1.5"/>
<path class="st0" d="M340,431.4h1.5"/>
<path class="st0" d="M335.5,209.6h6"/>
<path class="st0" d="M58.1,465.9H59"/>
<path class="st0" d="M172.3,375.5h9"/>
<path class="st0" d="M341.5,375.5h9"/>
<path class="st0" d="M195.7,214.9h-6.9"/>
<path class="st0" d="M58.1,444.8H59"/>
<path class="st0" d="M59,244.2h0.9"/>
<path class="st0" d="M181.3,431.4h1.5"/>
<path class="st0" d="M181.3,253.8h1.5"/>
<path class="st0" d="M321.1,419.9l0.6-0.6"/>
<path class="st0" d="M463.9,240.4h0.9"/>
<path class="st0" d="M187.3,470.4h1.5"/>
<path class="st0" d="M341.5,309.7h9"/>
<path class="st0" d="M195.7,244.9h-6.9"/>
<path class="st0" d="M463,215.6h0.9"/>
<path class="st0" d="M334,440.3h-6.9"/>
<path class="st0" d="M201.8,265.4l-0.6,0.6"/>
<path class="st0" d="M172.3,309.7h9"/>
<path class="st0" d="M326.5,266h-4.8"/>
<path class="st0" d="M463,244.9H453"/>
<path class="st0" d="M334,470.4h-6.9"/>
<path class="st0" d="M58.1,219.4H59"/>
<path class="st0" d="M195.7,419.9l0.6-0.6"/>
<path class="st0" d="M334,214.9h1.5"/>
<path class="st0" d="M181.3,250.2h6"/>
<path class="st0" d="M463,440.3H453"/>
<path class="st0" d="M463,469.6h0.9"/>
<path class="st0" d="M195.7,440.3h-6.9"/>
<path class="st0" d="M58.1,240.4H59"/>
<path class="st0" d="M59,215.6h0.9"/>
<path class="st0" d="M181.3,483.1h-9"/>
<path class="st0" d="M187.3,214.9h1.5"/>
<path class="st0" d="M463.9,444.8h0.9"/>
<path class="st0" d="M59,441.1h0.9"/>
<path class="st0" d="M69.8,470.4h-9.9"/>
<path class="st0" d="M463.9,465.9h0.9"/>
<path class="st0" d="M350.5,483.1h-9"/>
<path class="st0" d="M187.3,440.3h1.5"/>
<path class="st0" d="M201.2,419.3h-4.8"/>
<path class="st0" d="M69.8,244.9h-9.9"/>
<path class="st0" d="M334,244.9h1.5"/>
<path class="st0" d="M201.8,419.9l-0.6-0.6"/>
<path class="st0" d="M59,469.6h0.9"/>
<path class="st0" d="M69.8,214.9h-9.9"/>
<path class="st0" d="M463,441.1h0.9"/>
<path class="st0" d="M335.5,250.2h6"/>
<path class="st0" d="M463,244.2h0.9"/>
<path class="st0" d="M334,244.9h-6.9"/>
<path class="st0" d="M334,440.3h1.5"/>
<path class="st0" d="M187.3,244.9h1.5"/>
<path class="st0" d="M350.5,202.1h-9"/>
<path class="st0" d="M181.3,202.1h-9"/>
<path class="st0" d="M181.3,475.6h6"/>
<path class="st0" d="M335.5,475.6h6"/>
<path class="st0" d="M463.9,219.4h0.9"/>
<path class="st0" d="M56.5,441.8H58"/>
<path class="st0" d="M464.8,441.8h1.5"/>
<path class="st0" d="M56.5,468.9H58"/>
<path class="st0" d="M464.8,468.9h1.5"/>
<path class="st0" d="M308.7,56.6l0,2.3l0,2.3"/>
<path class="st0" d="M308.7,52.1l0,2.3l0,2.3"/>
<path class="st0" d="M308.6,47.6l0,2.3l0,2.3"/>
<path class="st0" d="M364.7,504.9l-3.3-19.5"/>
<path class="st0" d="M365.6,345.6h-0.9"/>
<path class="st0" d="M365.6,339.6h-0.9"/>
<path class="st0" d="M157.3,180.3h0.9"/>
<path class="st0" d="M158.2,504.9l3.3-19.5"/>
<path class="st0" d="M158.2,339.6l3.3-19.5"/>
<path class="st0" d="M361.4,365.2l3.3-19.5"/>
<path class="st0" d="M157.3,339.6h0.9"/>
<path class="st0" d="M161.5,365.2l-3.3-19.5"/>
<path class="st0" d="M161.5,199.8l-3.3-19.5"/>
<path class="st0" d="M365.6,180.3h-0.9"/>
<path class="st0" d="M365.6,504.9h-0.9"/>
<path class="st0" d="M364.7,339.6l-3.3-19.5"/>
<path class="st0" d="M157.3,504.9h0.9"/>
<path class="st0" d="M157.3,345.6h0.9"/>
<path class="st0" d="M361.4,199.8l3.3-19.5"/>
<path class="st0" d="M296.7,63.7l-0.1-18.6l-4.5-1.2"/>
<path class="st0" d="M292.2,64.9l3.3,0"/>
<path class="st0" d="M295.4,43.9c0.6-0.1,1.3,0.6,1.2,1.2"/>
<path class="st0" d="M296.7,63.7c0.1,0.6-0.6,1.3-1.2,1.2"/>
<path class="st0" d="M326.5,491.3h-4.8"/>
<path class="st0" d="M196.3,491.3h4.8"/>
<path class="st0" d="M201.2,194h-4.8"/>
<path class="st0" d="M321.7,194h4.8"/>
<path class="st1" d="M296.6,45.1l-1.1,0"/>
<path class="st1" d="M295.6,63.7l1.1,0"/>
<path class="st1" d="M295.4,45l0-1.1"/>
<path class="st1" d="M295.5,64.9l0-1.1l-3.1-0.1"/>
<path class="st1" d="M292.3,45.1l3,0l0.2,17.7"/>
<path class="st0" d="M440,183.3v12"/>
<path class="st0" d="M435.5,183.3v12"/>
<path class="st0" d="M87.4,489.9v12"/>
<path class="st0" d="M82.9,489.9v12"/>
<path class="st0" d="M82.9,195.3v-12"/>
<path class="st0" d="M87.4,195.3v-12"/>
<path class="st0" d="M435.5,501.9v-12"/>
<path class="st0" d="M440,501.9v-12"/>
<path class="st0" d="M87.4,501.9h-2.3h-2.3"/>
<path class="st0" d="M82.9,183.3h2.3h2.3"/>
<path class="st0" d="M435.5,501.9h2.3h2.3"/>
<path class="st0" d="M440,183.3h-2.3h-2.3"/>
<path class="st0" d="M172,81.9l0-9"/>
<path class="st0" d="M292.2,72.4l0,9"/>
<path class="st0" d="M289.2,84.5l-9,0"/>
<path class="st0" d="M182.8,253.8v9"/>
<path class="st0" d="M171.8,27.8c-0.2-1.5,1.5-3.2,3-3"/>
<path class="st0" d="M340,253.8v9"/>
<path class="st0" d="M174.8,24.8l9,0"/>
<path class="st0" d="M182.8,422.4v9"/>
<path class="st0" d="M171.8,36.8l0-9"/>
<path class="st0" d="M292,27.4l0,9"/>
<path class="st0" d="M280,24.4l9,0"/>
<path class="st0" d="M292.2,81.5c0.2,1.5-1.5,3.2-3,3"/>
<path class="st0" d="M340,422.4v9"/>
<path class="st0" d="M184,84.9l-9,0c-1.5,0.2-3.2-1.5-3-3"/>
<path class="st0" d="M289,24.4c1.5-0.2,3.2,1.5,3,3"/>
<path class="st0" d="M89.9,195.3h-9.6l-1.2,4.5"/>
<path class="st0" d="M432.9,195.3c-0.6-0.1-1.3,0.6-1.2,1.2"/>
<path class="st0" d="M431.7,199.8v-3.3"/>
<path class="st0" d="M443.7,196.5c0.1-0.6-0.6-1.3-1.2-1.2l1.2,4.5"/>
<path class="st0" d="M432.9,195.3h9.6"/>
<path class="st0" d="M91.1,488.7v-3.3"/>
<path class="st0" d="M80.3,489.9c-0.6,0.1-1.3-0.6-1.2-1.2"/>
<path class="st0" d="M79.1,485.4v3.3"/>
<path class="st0" d="M91.1,488.7c0.1,0.6-0.6,1.3-1.2,1.2"/>
<path class="st0" d="M80.3,489.9h9.6"/>
<path class="st0" d="M431.7,488.7c-0.1,0.6,0.6,1.3,1.2,1.2l-1.2-4.5"/>
<path class="st0" d="M442.5,489.9c0.6,0.1,1.3-0.6,1.2-1.2"/>
<path class="st0" d="M443.7,485.4v3.3l-10.8,1.2"/>
<path class="st0" d="M89.9,195.3c0.6-0.1,1.3,0.6,1.2,1.2"/>
<path class="st0" d="M91.1,199.8v-3.3"/>
<path class="st0" d="M79.1,196.5c-0.1-0.6,0.6-1.3,1.2-1.2"/>
<path class="st0" d="M288.9,77c0.2-2.1-2.1-4.4-4.2-4.2c-2.1-0.2-4.4,2.1-4.2,4.2c-0.2,2.1,2.1,4.4,4.2,4.2
	C286.8,81.4,289.1,79,288.9,77z"/>
<path class="st0" d="M184,84.9l96.2-0.4"/>
<path class="st0" d="M292.2,72.4l-0.1-36.1"/>
<path class="st0" d="M171.8,36.8l0.1,36.1"/>
<path class="st0" d="M175.3,77.4c-0.2-2.1,2.1-4.4,4.2-4.2c2.1-0.2,4.4,2.1,4.2,4.2c0.2,2.1-2.1,4.4-4.2,4.2
	C177.4,81.8,175.1,79.4,175.3,77.4z"/>
<path class="st0" d="M280,24.4l-96.2,0.4"/>
<path class="st0" d="M280.3,31.9c-0.2-2.1,2.1-4.4,4.2-4.2c2.1-0.2,4.4,2.1,4.2,4.2c0.2,2.1-2.1,4.4-4.2,4.2
	C282.5,36.3,280.1,34,280.3,31.9z"/>
<path class="st0" d="M183.5,32.3c0.2-2.1-2.1-4.4-4.2-4.2c-2.1-0.2-4.4,2.1-4.2,4.2c-0.2,2.1,2.1,4.4,4.2,4.2
	C181.4,36.7,183.8,34.4,183.5,32.3z"/>
<path class="st1" d="M442.6,196.5h1.1H442.6z"/>
<path class="st1" d="M432.9,196.4v-1.1"/>
<path class="st1" d="M80.3,195.3v1.1"/>
<path class="st1" d="M89.9,489.9v-1.1"/>
<path class="st1" d="M80.2,196.5h-1.1"/>
<path class="st1" d="M432.8,488.7h-1.1"/>
<path class="st1" d="M90,488.7h1.1"/>
<path class="st1" d="M432.9,489.9v-1.1"/>
<path class="st1" d="M89.9,196.4v-1.1V196.4z"/>
<path class="st1" d="M79.1,488.7h1.1l0.1,1.2"/>
<path class="st1" d="M443.7,488.7h-1.1"/>
<path class="st1" d="M431.7,196.5h1.1"/>
<path class="st1" d="M442.5,488.8v1.1"/>
<path class="st1" d="M80.8,196.5h8.7"/>
<path class="st1" d="M433.4,488.7h8.7"/>
<path class="st1" d="M432.9,485.6v3"/>
<path class="st1" d="M89.9,485.6v3"/>
<path class="st1" d="M80.3,488.5v-3"/>
<path class="st1" d="M442,196.5h-8.7l-0.5,3.1"/>
<path class="st1" d="M89.5,488.7h-8.7"/>
<path class="st1" d="M80.3,199.7v-3"/>
<path class="st1" d="M442.5,488.5v-3"/>
<path class="st1" d="M442.5,199.7v-3"/>
<path class="st1" d="M89.9,196.7v3"/>
<path class="st0" d="M464.8,240.4v-10.5v-10.5"/>
<path class="st0" d="M58.1,240.4v-10.5v-10.5"/>
<path class="st0" d="M464.8,465.9v-10.5v-10.5"/>
<path class="st0" d="M58.1,465.9v-10.5v-10.5"/>
<path class="st1" d="M287.2,31.9c0.1-1.3-1.4-2.8-2.7-2.7c-1.3-0.1-2.8,1.4-2.7,2.7c-0.1,1.3,1.4,2.8,2.7,2.7
	C285.9,34.7,287.4,33.2,287.2,31.9z"/>
<path class="st1" d="M182.2,77.4c0.1-1.3-1.4-2.8-2.7-2.7c-1.3-0.1-2.8,1.4-2.7,2.7c-0.1,1.3,1.4,2.8,2.7,2.7
	C180.8,80.2,182.4,78.7,182.2,77.4z"/>
<path class="st1" d="M282,77c-0.1-1.3,1.4-2.8,2.7-2.7c1.3-0.1,2.8,1.4,2.7,2.7c0.1,1.3-1.4,2.8-2.7,2.7
	C283.4,79.8,281.9,78.3,282,77z"/>
<path class="st1" d="M176.6,32.3c-0.1-1.3,1.4-2.8,2.7-2.7c1.3-0.1,2.8,1.4,2.7,2.7c0.1,1.3-1.4,2.8-2.7,2.7
	C178,35.1,176.5,33.6,176.6,32.3z"/>
<path class="st0" d="M178.6,29.8l1.5,0"/>
<path class="st0" d="M282.2,76.2l1.7,0"/>
<path class="st0" d="M283.8,32.6l-1.7,0"/>
<path class="st0" d="M283.9,74.5l1.5,0"/>
<path class="st0" d="M176.9,31.5l1.7,0"/>
<path class="st0" d="M287.2,76.2l0,1.5"/>
<path class="st0" d="M285.5,74.5l0,1.7"/>
<path class="st0" d="M287.2,77.7l-1.7,0"/>
<path class="st0" d="M282.2,77.7l0-1.5l1.7-1.7"/>
<path class="st0" d="M284,77.7l-1.7,0"/>
<path class="st0" d="M285.5,76.2l1.7,0"/>
<path class="st0" d="M284,79.5l0-1.7l1.5,1.7"/>
<path class="st0" d="M285.3,34.4l-1.5,0"/>
<path class="st0" d="M287,31.1l0,1.5l-1.7,1.7"/>
<path class="st0" d="M283.8,29.4l1.5,0l1.7,1.7"/>
<path class="st0" d="M282.1,32.7l0-1.5"/>
<path class="st0" d="M283.8,34.4l0-1.7"/>
<path class="st0" d="M282.1,31.1l1.7,0"/>
<path class="st0" d="M287,32.6l-1.7,0l-1.5-3.2l1.5,1.7"/>
<path class="st0" d="M177,78.1l0-1.5l1.7-1.7"/>
<path class="st0" d="M180.3,79.8l-1.5,0"/>
<path class="st0" d="M180.3,74.9l0,1.7"/>
<path class="st0" d="M182,78.1l-1.7,0l0,1.7l-1.5-1.7"/>
<path class="st0" d="M180.1,34.8l-1.5,0"/>
<path class="st0" d="M181.8,31.5l0,1.5l-1.7,1.7"/>
<path class="st0" d="M176.9,33l0-1.5"/>
<path class="st0" d="M178.6,34.8l0-1.7l0-3.2l1.5,1.7l-3.2,1.5"/>
<path class="st0" d="M181.8,33l-1.7,0"/>
<path class="st0" d="M180.3,76.6l1.7,0"/>
<path class="st0" d="M177,76.6l1.7,0l-1.7,1.5"/>
<path class="st0" d="M182,76.6l0,1.5"/>
<path class="st0" d="M285.5,79.4l-1.5,0"/>
<path class="st0" d="M180.1,31.5l1.7,0"/>
<path class="st0" d="M178.8,74.9l1.5,0"/>
<path class="st1" d="M277.4,54.5c0.8-7.5-7.8-16.1-15.3-15.3c-7.5-0.8-16.1,7.8-15.3,15.3c-0.8,7.5,7.8,16.1,15.3,15.3
	C269.6,70.6,278.2,62.1,277.4,54.5z"/>
<path class="st0" d="M175,72.9l-0.1-36.1"/>
<path class="st0" d="M183.9,36.8l-9,0l-3,0"/>
<path class="st0" d="M184,81.9l0,3"/>
<path class="st0" d="M289.2,72.5l3,0"/>
<path class="st0" d="M292.1,36.4l-3,0"/>
<path class="st0" d="M280.2,81.5l0-9"/>
<path class="st0" d="M183.8,27.8l0,9"/>
<path class="st0" d="M280.2,84.5l0-3"/>
<path class="st0" d="M280.2,72.5l9,0"/>
<path class="st0" d="M183.8,24.8l0,3"/>
<path class="st0" d="M184,72.8l0,9"/>
<path class="st0" d="M289.1,36.4l0.1,36.1"/>
<path class="st0" d="M175,72.9l9,0"/>
<path class="st0" d="M280.2,81.5L184,81.9"/>
<path class="st0" d="M289.1,36.4l-9,0l0-9"/>
<path class="st0" d="M183.8,27.8l96.2-0.4"/>
<path class="st0" d="M172,72.9l3,0"/>
<path class="st0" d="M280,27.4l0-3"/>
<path class="st0" d="M466.3,243.4v-13.5v-13.5l-1.5,13.5v13.5"/>
<path class="st0" d="M58,216.4v13.5v13.5"/>
<path class="st0" d="M466.3,468.9v-13.5v-13.5l-1.5,13.5v13.5"/>
<path class="st0" d="M58,441.8v13.5v13.5"/>
<path class="st0" d="M181.3,375.5v5.4"/>
<path class="st0" d="M341.5,304.3v5.4"/>
<path class="st0" d="M181.3,304.3v5.4"/>
<path class="st0" d="M341.5,375.5v5.4"/>
<path class="st0" d="M59,244.2v-14.3v-14.3"/>
<path class="st0" d="M463.9,244.2v-14.3v-14.3"/>
<path class="st0" d="M463.9,469.6v-14.3v-14.3"/>
<path class="st0" d="M59,469.6v-14.3v-14.3"/>
<path class="st1" d="M69.8,440.5v14.8v14.8"/>
<path class="st1" d="M69.8,215.1v14.8v14.8"/>
<path class="st1" d="M453,440.5v14.8v14.8"/>
<path class="st1" d="M453,215.1v14.8v14.8"/>
<path class="st0" d="M59.9,214.9v15v15"/>
<path class="st0" d="M463,214.9v15v15"/>
<path class="st0" d="M188.8,244.9v-15v-15"/>
<path class="st0" d="M334,214.9v15v15"/>
<path class="st0" d="M59.9,440.3v15v15"/>
<path class="st0" d="M188.8,214.9v15v15"/>
<path class="st0" d="M463,440.3v15v15"/>
<path class="st0" d="M334,244.9v-15v-15"/>
<path class="st0" d="M188.8,470.4v-15v-15v15V470.4z"/>
<path class="st0" d="M334,470.4v-15v-15v15V470.4z"/>
<path class="st0" d="M70.1,317.1v-9"/>
<path class="st0" d="M70.1,211.9v-9"/>
<path class="st0" d="M73.1,199.8H74"/>
<path class="st0" d="M452.7,317.1v-9"/>
<path class="st0" d="M449.7,320.1l3-3"/>
<path class="st0" d="M448.8,320.1h0.9"/>
<path class="st0" d="M73.1,365.2H74"/>
<path class="st0" d="M70.1,368.2l3-3"/>
<path class="st0" d="M73.1,485.4l-3-3"/>
<path class="st0" d="M74,485.4h-0.9"/>
<path class="st0" d="M70.1,377.2v-9"/>
<path class="st0" d="M452.7,202.9l-3-3h-0.9"/>
<path class="st0" d="M452.7,482.4v-9"/>
<path class="st0" d="M452.7,377.2v-9"/>
<path class="st0" d="M449.7,365.2h-0.9"/>
<path class="st0" d="M70.1,202.9l3-3"/>
<path class="st0" d="M449.7,485.4l3-3"/>
<path class="st0" d="M73.1,320.1l-3-3"/>
<path class="st0" d="M70.1,482.4v-9"/>
<path class="st0" d="M452.7,368.2l-3-3"/>
<path class="st0" d="M74,320.1h-0.9"/>
<path class="st0" d="M452.7,211.9v-9"/>
<path class="st0" d="M448.8,485.4h0.9"/>
<path class="st0" d="M187.3,435v20.3v20.3"/>
<path class="st0" d="M335.5,209.6v20.3v20.3"/>
<path class="st0" d="M187.3,209.6v20.3v20.3"/>
<path class="st0" d="M335.5,435v20.3v20.3"/>
<path class="st0" d="M448.8,308.4h0.9"/>
<path class="st0" d="M448.8,316.8h0.9"/>
<path class="st0" d="M71.6,204.7c-0.1-0.7,0.8-1.6,1.5-1.5"/>
<path class="st0" d="M74,211.6h-0.9"/>
<path class="st0" d="M74,203.2h-0.9"/>
<path class="st0" d="M451.2,480.6c0.1,0.7-0.8,1.6-1.5,1.5"/>
<path class="st0" d="M71.6,475.2c-0.1-0.7,0.8-1.6,1.5-1.5H74"/>
<path class="st0" d="M73.1,482.1H74"/>
<path class="st0" d="M449.7,376.9h-0.9"/>
<path class="st0" d="M449.7,211.6h-0.9"/>
<path class="st0" d="M448.8,473.7h0.9"/>
<path class="st0" d="M71.6,309.9c-0.1-0.7,0.8-1.6,1.5-1.5"/>
<path class="st0" d="M73.1,316.8c-0.7,0.1-1.6-0.8-1.5-1.5"/>
<path class="st0" d="M73.1,308.4H74"/>
<path class="st0" d="M73.1,316.8H74"/>
<path class="st0" d="M71.6,370c-0.1-0.7,0.8-1.6,1.5-1.5"/>
<path class="st0" d="M74,376.9h-0.9"/>
<path class="st0" d="M74,368.5h-0.9"/>
<path class="st0" d="M449.7,368.5c0.7-0.1,1.6,0.8,1.5,1.5"/>
<path class="st0" d="M73.1,211.6c-0.7,0.1-1.6-0.8-1.5-1.5"/>
<path class="st0" d="M449.7,473.7c0.7-0.1,1.6,0.8,1.5,1.5"/>
<path class="st0" d="M73.1,482.1c-0.7,0.1-1.6-0.8-1.5-1.5"/>
<path class="st0" d="M451.2,210.1c0.1,0.7-0.8,1.6-1.5,1.5"/>
<path class="st0" d="M73.1,376.9c-0.7,0.1-1.6-0.8-1.5-1.5"/>
<path class="st0" d="M451.2,375.4c0.1,0.7-0.8,1.6-1.5,1.5"/>
<path class="st0" d="M449.7,308.4c0.7-0.1,1.6,0.8,1.5,1.5"/>
<path class="st0" d="M451.2,315.3c0.1,0.7-0.8,1.6-1.5,1.5"/>
<path class="st0" d="M449.7,203.2h-0.9c1.6-0.1,2.5,0.8,2.4,1.5"/>
<path class="st0" d="M449.7,368.5h-0.9"/>
<path class="st0" d="M448.8,482.1h0.9"/>
<path class="st0" d="M247.1,54.5c-0.7-7.4,7.6-15.8,15-15c7.4-0.7,15.8,7.6,15,15c0.7,7.4-7.6,15.8-15,15
	C254.7,70.3,246.3,61.9,247.1,54.5z"/>
<path class="st0" d="M259.1,54.5c-0.2-1.5,1.5-3.2,3-3c1.5-0.2,3.2,1.5,3,3c0.2,1.5-1.5,3.2-3,3C260.6,57.7,258.9,56,259.1,54.5z"/>
<path class="st0" d="M149.8,339.6h7.5"/>
<path class="st0" d="M373.1,339.6h-7.5"/>
<path class="st0" d="M365.6,180.3h7.5"/>
<path class="st0" d="M157.3,345.6h-7.5"/>
<path class="st0" d="M149.8,504.9h7.5"/>
<path class="st0" d="M157.3,180.3h-7.5"/>
<path class="st0" d="M276.4,54.5c0.7-7-7.3-15-14.3-14.3c-7-0.7-15,7.3-14.3,14.3c-0.7,7,7.3,15,14.3,14.3
	C269.1,69.5,277.1,61.5,276.4,54.5z"/>
<path class="st0" d="M373.1,504.9h-7.5"/>
<path class="st0" d="M365.6,345.6h7.5"/>
<path class="st0" d="M266.3,54.5c0.2-2.1-2.1-4.4-4.2-4.2c-2.1-0.2-4.4,2.1-4.2,4.2c-0.2,2.1,2.1,4.4,4.2,4.2
	C264.2,59,266.5,56.6,266.3,54.5z"/>
<path class="st0" d="M451.2,315.3v-2.7v-2.7"/>
<path class="st0" d="M71.6,204.7v2.7v2.7"/>
<path class="st0" d="M451.2,204.7v2.7v2.7"/>
<path class="st0" d="M71.6,480.6v-2.7v-2.7"/>
<path class="st0" d="M71.6,315.3v-2.7v-2.7"/>
<path class="st0" d="M71.6,370v2.7v2.7"/>
<path class="st0" d="M451.2,370v2.7v2.7"/>
<path class="st0" d="M350.5,304.3H340"/>
<path class="st0" d="M340,262.8h1.5"/>
<path class="st0" d="M182.8,380.9h-10.5"/>
<path class="st0" d="M181.3,422.4h1.5"/>
<path class="st0" d="M172.3,304.3h10.5"/>
<path class="st0" d="M182.8,262.8h-1.5"/>
<path class="st0" d="M451.2,480.6v-2.7v-2.7"/>
<path class="st0" d="M340,380.9h10.5"/>
<path class="st0" d="M341.5,422.4H340"/>
<path class="st0" d="M275.6,54.5c0.7-6.7-6.9-14.2-13.5-13.5c-6.7-0.7-14.2,6.9-13.5,13.5c-0.7,6.7,6.9,14.2,13.5,13.5
	C268.7,68.7,276.3,61.2,275.6,54.5z"/>
<path class="st1" d="M449.7,473.7v4.2v4.2"/>
<path class="st1" d="M340.1,420.9h1.4"/>
<path class="st1" d="M172.8,382.4h9.5"/>
<path class="st1" d="M73.1,211.5v-4.2v-4.2"/>
<path class="st1" d="M182.7,420.9h-1.4"/>
<path class="st1" d="M341.4,264.3h-1.4"/>
<path class="st1" d="M449.7,308.4v4.2v4.2"/>
<path class="st1" d="M73.1,376.8v-4.2v-4.2"/>
<path class="st1" d="M73.1,308.4v4.2v4.2"/>
<path class="st1" d="M350,382.4h-9.5"/>
<path class="st1" d="M449.7,376.8v-4.2v-4.2"/>
<path class="st1" d="M182.3,302.8h-9.5"/>
<path class="st1" d="M340.5,302.8h9.5"/>
<path class="st1" d="M449.7,211.5v-4.2v-4.2"/>
<path class="st1" d="M181.4,264.3h1.4"/>
<path class="st1" d="M73.1,473.7v4.2v4.2"/>
<path class="st0" d="M182.8,304.3v-1.5"/>
<path class="st0" d="M340,304.3v-1.5"/>
<path class="st0" d="M340,264.3v-1.5"/>
<path class="st0" d="M341.5,237.5h9"/>
<path class="st0" d="M341.5,237.5v26.8l-1.5,38.5"/>
<path class="st0" d="M182.8,382.4v38.5"/>
<path class="st0" d="M181.3,447.8h-9"/>
<path class="st0" d="M182.8,422.4v-1.5"/>
<path class="st0" d="M182.8,382.4v-1.5"/>
<path class="st0" d="M181.3,420.9v26.8"/>
<path class="st0" d="M182.8,264.3v-1.5l0,40"/>
<path class="st0" d="M181.3,237.5v26.8"/>
<path class="st0" d="M181.3,237.5h-9"/>
<path class="st0" d="M340,382.4v38.5"/>
<path class="st0" d="M341.5,447.8h9"/>
<path class="st0" d="M341.5,420.9v26.8"/>
<path class="st0" d="M340,382.4v-1.5"/>
<path class="st0" d="M340,422.4v-1.5"/>
<path class="st0" d="M172.3,483.1h-1.5"/>
<path class="st0" d="M172.3,317.8h-1.5"/>
<path class="st0" d="M452.7,211.9v96.2"/>
<path class="st0" d="M365.6,320.1H352"/>
<path class="st0" d="M431.1,199.8h17.7"/>
<path class="st0" d="M350.5,367.4h1.5"/>
<path class="st0" d="M448.8,320.1h-17.7"/>
<path class="st0" d="M350.5,483.1h1.5"/>
<path class="st0" d="M350.5,202.1h1.5"/>
<path class="st0" d="M350.5,317.8h1.5"/>
<path class="st0" d="M352,199.8h13.5"/>
<path class="st0" d="M91.8,365.2H74"/>
<path class="st0" d="M157.3,485.4h13.5"/>
<path class="st0" d="M74,485.4h17.7"/>
<path class="st0" d="M74,320.1h17.7"/>
<path class="st0" d="M170.8,365.2h-13.5"/>
<path class="st0" d="M70.1,377.2v96.2"/>
<path class="st0" d="M352,365.2h13.5"/>
<path class="st0" d="M172.3,367.4h-1.5"/>
<path class="st0" d="M70.1,211.9v96.2"/>
<path class="st0" d="M157.3,320.1h13.5"/>
<path class="st0" d="M91.8,199.8H74"/>
<path class="st0" d="M172.3,202.1h-1.5"/>
<path class="st0" d="M452.7,377.2v96.2"/>
<path class="st0" d="M170.8,199.8h-13.5"/>
<path class="st0" d="M431.1,365.2h17.7"/>
<path class="st0" d="M448.8,485.4h-17.7"/>
<path class="st0" d="M365.6,485.4H352"/>
<path class="st1" d="M172.2,482.4h-1.4"/>
<path class="st1" d="M350.6,368.2h1.4"/>
<path class="st1" d="M172.2,368.2h-1.4"/>
<path class="st1" d="M350.6,317.1h1.4"/>
<path class="st1" d="M350.6,202.9h1.4"/>
<path class="st1" d="M172.2,202.9h-1.4"/>
<path class="st1" d="M172.2,317.1h-1.4"/>
<path class="st1" d="M350.6,482.4h1.4"/>
<path class="st0" d="M172.3,368.2v87.2v27.1"/>
<path class="st0" d="M350.5,229.9v87.2"/>
<path class="st0" d="M350.5,202.9v27.1"/>
<path class="st0" d="M350.5,368.2v87.2"/>
<path class="st0" d="M172.3,229.9v87.2"/>
<path class="st0" d="M172.3,202.9v27.1"/>
<path class="st0" d="M350.5,455.3v27.1"/>
<path class="st1" d="M150.1,184.8h6.8"/>
<path class="st1" d="M365.9,500.4h6.8"/>
<path class="st1" d="M365.9,335.1h6.8"/>
<path class="st1" d="M372.7,350.1h-6.8"/>
<path class="st1" d="M150.1,350.1h6.8"/>
<path class="st1" d="M372.7,184.8h-6.8"/>
<path class="st1" d="M156.9,335.1h-6.8"/>
<path class="st1" d="M156.9,500.4h-6.8"/>
<path class="st0" d="M365.6,184.8v15.4"/>
<path class="st0" d="M365.6,184.8v-4.5"/>
<path class="st0" d="M157.3,319.7v15.4"/>
<path class="st0" d="M373.1,319.7h-7.5"/>
<path class="st0" d="M365.6,339.6v-4.5"/>
<path class="st0" d="M365.6,319.7v15.4"/>
<path class="st0" d="M365.6,200.2h7.5"/>
<path class="st0" d="M365.6,485v15.4"/>
<path class="st0" d="M365.6,504.9v-4.5"/>
<path class="st0" d="M157.3,350.1v-4.5"/>
<path class="st0" d="M365.6,350.1v15.4"/>
<path class="st0" d="M157.3,485v15.4"/>
<path class="st0" d="M373.1,485h-7.5"/>
<path class="st0" d="M149.8,485h7.5"/>
<path class="st0" d="M157.3,365.6h-7.5"/>
<path class="st0" d="M157.3,184.8v-4.5"/>
<path class="st0" d="M157.3,184.8v15.4"/>
<path class="st0" d="M149.8,319.7h7.5"/>
<path class="st0" d="M157.3,339.6v-4.5"/>
<path class="st0" d="M157.3,350.1v15.4"/>
<path class="st0" d="M157.3,504.9v-4.5"/>
<path class="st0" d="M157.3,200.2h-7.5"/>
<path class="st0" d="M365.6,350.1v-4.5"/>
<path class="st0" d="M365.6,365.6h7.5"/>
<path class="st1" d="M169.7,317.1h-18.9"/>
<path class="st1" d="M353.1,482.4H372"/>
<path class="st1" d="M90.9,482.4h-16"/>
<path class="st1" d="M353.1,317.1H372"/>
<path class="st1" d="M447.9,202.9h-16"/>
<path class="st1" d="M169.7,482.4h-18.9"/>
<path class="st1" d="M136.8,202.9h3.7"/>
<path class="st1" d="M372,368.2h-18.9"/>
<path class="st1" d="M150.8,202.9h18.9"/>
<path class="st1" d="M74.9,202.9h16"/>
<path class="st1" d="M447.9,368.2h-16"/>
<path class="st1" d="M90.9,317.1h-16"/>
<path class="st1" d="M386,202.9h-3.7"/>
<path class="st1" d="M432,482.4h16"/>
<path class="st1" d="M150.8,368.2h18.9"/>
<path class="st1" d="M372,202.9h-18.9"/>
<path class="st1" d="M74.9,368.2h16"/>
<path class="st1" d="M432,317.1h16"/>
<path class="st0" d="M448.8,473.4v9"/>
<path class="st0" d="M74,368.2v9"/>
<path class="st0" d="M352,368.2v-3"/>
<path class="st0" d="M352,482.4V368.2"/>
<path class="st0" d="M448.8,317.1v3"/>
<path class="st0" d="M448.8,308.1v9"/>
<path class="st0" d="M452.7,308.1h-3h-0.9"/>
<path class="st0" d="M352,320.1v-3"/>
<path class="st0" d="M449.7,211.9h3"/>
<path class="st0" d="M448.8,211.9h0.9"/>
<path class="st0" d="M448.8,199.8v3v9"/>
<path class="st0" d="M449.7,308.1v-96.2"/>
<path class="st0" d="M352,202.9v-3"/>
<path class="st0" d="M352,317.1V202.9"/>
<path class="st0" d="M321.1,272.1h-12"/>
<path class="st0" d="M74,473.4v9"/>
<path class="st0" d="M202.4,272.1h12"/>
<path class="st0" d="M43,257h13.5"/>
<path class="st0" d="M73.1,473.4v-96.2"/>
<path class="st0" d="M170.8,317.1V202.9"/>
<path class="st0" d="M170.8,368.2v-3"/>
<path class="st0" d="M73.1,377.2h-3"/>
<path class="st0" d="M74,377.2h-0.9"/>
<path class="st0" d="M74,365.2v3"/>
<path class="st0" d="M70.1,473.4h3"/>
<path class="st0" d="M74,482.4v3"/>
<path class="st0" d="M73.1,473.4H74"/>
<path class="st0" d="M170.8,485.4v-3"/>
<path class="st0" d="M449.7,377.2h3"/>
<path class="st0" d="M448.8,377.2h0.9"/>
<path class="st0" d="M448.8,365.2v3v9"/>
<path class="st0" d="M449.7,473.4v-96.2"/>
<path class="st0" d="M452.7,473.4h-3"/>
<path class="st0" d="M448.8,482.4v3"/>
<path class="st0" d="M74,317.1v3"/>
<path class="st0" d="M74,308.1v9"/>
<path class="st0" d="M73.1,308.1H74"/>
<path class="st0" d="M170.8,320.1v-3"/>
<path class="st0" d="M73.1,211.9h-3"/>
<path class="st0" d="M74,211.9h-0.9"/>
<path class="st0" d="M74,199.8v3l0,9"/>
<path class="st0" d="M73.1,308.1v-96.2"/>
<path class="st0" d="M170.8,202.9v-3"/>
<path class="st0" d="M70.1,308.1h3"/>
<path class="st0" d="M170.8,482.4V368.2"/>
<path class="st0" d="M480.4,257h-13.5"/>
<path class="st0" d="M352,485.4v-3"/>
<path class="st0" d="M449.7,473.4h-0.9"/>
<path class="st0" d="M425.4,620.6v-62.2h-61.3v62.2"/>
<path class="st0" d="M403.5,547c-0.3-3.1,3.2-6.6,6.3-6.3c3.1-0.3,6.6,3.2,6.3,6.3c0.3,3.1-3.2,6.6-6.3,6.3
	C406.7,553.6,403.2,550.1,403.5,547z"/>
<path class="st0" d="M436.8,553l9-9"/>
<path class="st0" d="M154.8,535v9"/>
<path class="st0" d="M102.5,544v-9"/>
<path class="st0" d="M86.6,553l-9-9"/>
<path class="st0" d="M86.6,553v145.8"/>
<path class="st0" d="M89.6,701.8l-3-3"/>
<path class="st0" d="M170.8,698.8l-3,3"/>
<path class="st0" d="M170.8,698.8V553"/>
<path class="st0" d="M179.8,544l-9,9"/>
<path class="st0" d="M120,547c0.3-3.1-3.2-6.6-6.3-6.3c-3.1-0.3-6.6,3.2-6.3,6.3c-0.3,3.1,3.2,6.6,6.3,6.3
	C116.8,553.6,120.3,550.1,120,547z"/>
<path class="st0" d="M159.3,558.4v62.2"/>
<path class="st0" d="M98,620.6v-62.2"/>
<path class="st0" d="M368.6,535v9"/>
<path class="st0" d="M98,558.4h61.3"/>
<path class="st0" d="M150,547c0.3-3.1-3.2-6.6-6.3-6.3c-3.1-0.3-6.6,3.2-6.3,6.3c-0.3,3.1,3.2,6.6,6.3,6.3
	C146.8,553.6,150.3,550.1,150,547z"/>
<path class="st0" d="M436.8,553v145.8"/>
<path class="st0" d="M433.8,701.8l3-3"/>
<path class="st0" d="M352.7,698.8l3,3"/>
<path class="st0" d="M352.7,698.8V553"/>
<path class="st0" d="M343.7,544l9,9"/>
<path class="st0" d="M420.9,544v-9"/>
<path class="st0" d="M373.4,547c-0.3-3.1,3.2-6.6,6.3-6.3c3.1-0.3,6.6,3.2,6.3,6.3c0.3,3.1-3.2,6.6-6.3,6.3
	C376.6,553.6,373.1,550.1,373.4,547z"/>
<path class="st0" d="M181.3,447.8v24.3v11"/>
<path class="st0" d="M341.5,202.1v11v24.3"/>
<path class="st0" d="M181.3,202.1v11v24.3"/>
<path class="st0" d="M341.5,447.8v24.3v11"/>
<path class="st0" d="M466.9,426.8h13.5"/>
<path class="st0" d="M309.1,410.8h12"/>
<path class="st0" d="M56.5,426.8H43"/>
<path class="st0" d="M214.4,410.8h-12"/>
<path class="st0" d="M99.5,544h3"/>
<path class="st0" d="M154.8,544h3"/>
<path class="st0" d="M368.6,544h-3"/>
<path class="st0" d="M423.9,544h-3"/>
<path class="st0" d="M251.6,54.5c-0.5-5.2,5.3-11,10.5-10.5c5.2-0.5,11,5.3,10.5,10.5c0.5,5.2-5.3,11-10.5,10.5
	C256.9,65.5,251,59.7,251.6,54.5z"/>
<path class="st0" d="M274.1,54.5c0.6-5.9-6.1-12.6-12-12c-5.9-0.6-12.6,6.1-12,12c-0.6,5.9,6.1,12.6,12,12
	C268,67.1,274.7,60.4,274.1,54.5z"/>
<path class="st0" d="M268.8,54.5c0.3-3.3-3.4-7.1-6.8-6.8c-3.3-0.3-7.1,3.4-6.8,6.8c-0.3,3.3,3.4,7.1,6.8,6.8
	C265.4,61.6,269.2,57.8,268.8,54.5z"/>
<path class="st0" d="M257.6,54.5c-0.2-2.2,2.3-4.7,4.5-4.5c2.2-0.2,4.7,2.3,4.5,4.5c0.2,2.2-2.3,4.7-4.5,4.5
	C259.9,59.2,257.3,56.7,257.6,54.5z"/>
<path class="st0" d="M99.5,544v-9"/>
<path class="st0" d="M431.1,510.9h-58"/>
<path class="st0" d="M373.1,177.3h58"/>
<path class="st0" d="M91.8,510.9h58"/>
<path class="st0" d="M149.8,177.3h-58"/>
<path class="st0" d="M157.8,535v9"/>
<path class="st0" d="M365.6,535v9"/>
<path class="st0" d="M423.9,544v-9"/>
<path class="st0" d="M195.7,419.9v34.1v36.8"/>
<path class="st0" d="M201.8,490.7v-36.8v-34.1"/>
<path class="st0" d="M327.1,419.9v34.1v36.8"/>
<path class="st0" d="M195.7,194.6v36.9v33.9"/>
<path class="st0" d="M201.8,265.4v-33.9v-36.9"/>
<path class="st0" d="M327.1,194.6v36.9v33.9"/>
<path class="st0" d="M201.2,419.3v34.6v37.4"/>
<path class="st0" d="M196.3,491.3v-37.4v-34.6"/>
<path class="st0" d="M321.7,419.3v34.6v37.4"/>
<path class="st0" d="M326.5,491.3v-37.4v-34.6"/>
<path class="st0" d="M201.2,194v37.5V266"/>
<path class="st0" d="M196.3,266v-34.5V194"/>
<path class="st0" d="M321.7,194v37.5V266"/>
<path class="st0" d="M326.5,266v-34.5V194"/>
<path class="st0" d="M96.5,544H43"/>
<path class="st0" d="M309.1,535h53.5"/>
<path class="st0" d="M96.5,544h3"/>
<path class="st0" d="M157.8,544h3"/>
<path class="st0" d="M466.9,516.9l-6,6"/>
<path class="st0" d="M327.1,523h133.8"/>
<path class="st0" d="M327.1,523l-6-6"/>
<path class="st0" d="M321.1,410.8v6v100.1"/>
<path class="st0" d="M160.9,544v-9"/>
<path class="st0" d="M480.4,426.8v6"/>
<path class="st0" d="M466.9,432.8v-6"/>
<path class="st0" d="M480.4,432.8h-13.5"/>
<path class="st0" d="M466.9,516.9v-84.2"/>
<path class="st0" d="M309.1,535V416.9v-6"/>
<path class="st0" d="M321.1,416.9h-12"/>
<path class="st0" d="M480.4,432.8V535H309.1"/>
<path class="st0" d="M451.9,163.8l15,15"/>
<path class="st0" d="M443.6,163.8h8.3"/>
<path class="st0" d="M336.1,163.8h14.3"/>
<path class="st0" d="M321.1,178.8l15-15"/>
<path class="st0" d="M321.1,263.1v-84.2"/>
<path class="st0" d="M321.1,263.1v9"/>
<path class="st0" d="M309.1,263.1h12"/>
<path class="st0" d="M309.1,272.1v-9"/>
<path class="st0" d="M480.4,247.9v-93.2"/>
<path class="st0" d="M309.1,154.8v108.3"/>
<path class="st0" d="M71.6,163.8l-15,15"/>
<path class="st0" d="M187.3,163.8h-14.3"/>
<path class="st0" d="M79.9,163.8h-8.3"/>
<path class="st0" d="M202.4,178.8l-15-15"/>
<path class="st0" d="M202.4,263.1v-84.2"/>
<path class="st0" d="M202.4,263.1v9"/>
<path class="st0" d="M214.4,272.1v-9h-12"/>
<path class="st0" d="M214.4,154.8v108.3"/>
<path class="st0" d="M43,247.9v9"/>
<path class="st0" d="M43,247.9v-93.2"/>
<path class="st0" d="M56.5,257v-9H43"/>
<path class="st0" d="M56.5,178.8v69.1"/>
<path class="st0" d="M79.9,154.8v9"/>
<path class="st0" d="M173.1,163.8v-9"/>
<path class="st0" d="M56.5,516.9l6,6"/>
<path class="st0" d="M196.3,523H62.5"/>
<path class="st0" d="M196.3,523l6-6"/>
<path class="st0" d="M202.4,416.9v100.1"/>
<path class="st0" d="M202.4,410.8v6"/>
<path class="st0" d="M43,426.8v6h13.5v-6"/>
<path class="st0" d="M56.5,516.9v-84.2"/>
<path class="st0" d="M214.4,416.9v-6"/>
<path class="st0" d="M214.4,535V416.9"/>
<path class="st0" d="M202.4,416.9h12"/>
<path class="st0" d="M43,432.8V535h171.4"/>
<path class="st0" d="M309.1,535v9"/>
<path class="st0" d="M214.4,535v9"/>
<path class="st0" d="M96.5,535v9"/>
<path class="st0" d="M362.6,544v-9"/>
<path class="st0" d="M365.6,544h-3"/>
<path class="st0" d="M43,535v9"/>
<path class="st0" d="M96.5,535H43"/>
<path class="st0" d="M350.4,163.8v-9"/>
<path class="st0" d="M426.9,544h53.5"/>
<path class="st0" d="M466.9,178.8v69.1"/>
<path class="st0" d="M443.6,154.8v9"/>
<path class="st0" d="M426.9,535h53.5"/>
<path class="st0" d="M426.9,535v9"/>
<path class="st0" d="M466.9,257v-9"/>
<path class="st0" d="M480.4,535v9"/>
<path class="st0" d="M426.9,544h-3"/>
<path class="st0" d="M214.4,535h-53.5"/>
<path class="st0" d="M466.9,247.9h13.5"/>
<path class="st0" d="M214.4,544h-53.5"/>
<path class="st0" d="M309.1,544h53.5"/>
<path class="st0" d="M480.4,247.9v9"/>
<path class="st0" d="M382.1,276.5v12"/>
<path class="st0" d="M422.1,291l-40-14.6"/>
<path class="st0" d="M422.1,303.1v-12"/>
<path class="st0" d="M382.1,288.5l40,14.6"/>
<path class="st0" d="M422.1,384.7l-40-14.5"/>
<path class="st0" d="M422.1,396.7v-12"/>
<path class="st0" d="M382.1,382.2l40,14.6"/>
<path class="st0" d="M382.1,370.1v12"/>
<path class="st0" d="M382.1,238.9v12"/>
<path class="st0" d="M422.1,253.5l-40-14.6"/>
<path class="st0" d="M422.1,265.5v-12"/>
<path class="st0" d="M382.1,250.9l40,14.6"/>
<path class="st0" d="M422.1,462.8l-40-14.6"/>
<path class="st0" d="M422.1,474.9v-12"/>
<path class="st0" d="M382.1,460.3l40,14.6"/>
<path class="st0" d="M382.1,448.3v12"/>
<path class="st0" d="M422.1,423.8l-40-14.6"/>
<path class="st0" d="M422.1,435.8v-12"/>
<path class="st0" d="M382.1,409.2v12"/>
<path class="st0" d="M382.1,201.3v12"/>
<path class="st0" d="M422.1,215.9l-40-14.6"/>
<path class="st0" d="M422.1,227.9v-12"/>
<path class="st0" d="M382.1,213.4l40,14.5"/>
<path class="st0" d="M373.1,510.9v-6V183.3v-6"/>
<path class="st0" d="M431.1,504.9v6"/>
<path class="st0" d="M373.1,504.9h58V183.3h-58"/>
<path class="st0" d="M431.1,177.3v6"/>
<path class="st0" d="M140.7,276.5v12"/>
<path class="st0" d="M100.8,291l40-14.6"/>
<path class="st0" d="M100.8,303.1v-12"/>
<path class="st0" d="M140.7,288.5l-40,14.6"/>
<path class="st0" d="M100.8,384.7l40-14.5"/>
<path class="st0" d="M100.8,396.7v-12"/>
<path class="st0" d="M140.7,382.2l-40,14.6"/>
<path class="st0" d="M140.7,370.1v12"/>
<path class="st0" d="M140.7,238.9v12"/>
<path class="st0" d="M100.8,253.5l40-14.6"/>
<path class="st0" d="M100.8,265.5v-12"/>
<path class="st0" d="M140.7,250.9l-40,14.6"/>
<path class="st0" d="M100.8,462.8l40-14.6"/>
<path class="st0" d="M100.8,474.9v-12"/>
<path class="st0" d="M140.7,460.3l-40,14.6"/>
<path class="st0" d="M140.7,448.3v12"/>
<path class="st0" d="M100.8,423.8l40-14.6"/>
<path class="st0" d="M100.8,435.8v-12"/>
<path class="st0" d="M140.7,421.2l-40,14.6"/>
<path class="st0" d="M140.7,409.2v12"/>
<path class="st0" d="M140.7,201.3v12"/>
<path class="st0" d="M100.8,215.9l40-14.6"/>
<path class="st0" d="M100.8,227.9v-12"/>
<path class="st0" d="M140.7,213.4l-40,14.5"/>
<path class="st0" d="M149.8,183.3v-6"/>
<path class="st0" d="M149.8,504.9V183.3"/>
<path class="st0" d="M149.8,510.9v-6"/>
<path class="st0" d="M91.8,504.9v6"/>
<path class="st0" d="M149.8,504.9h-58"/>
<path class="st0" d="M91.8,183.3h58"/>
<path class="st0" d="M91.8,504.9V183.3"/>
<path class="st0" d="M91.8,177.3v6"/>
<path class="st0" d="M382.1,421.2l40,14.6"/>
<path class="st0" d="M367.7,559c-1.5-0.1-3.2,1.5-3,3v9"/>
<path class="st0" d="M376.7,559h-9"/>
<path class="st0" d="M424.8,562c0.1-1.5-1.5-3.2-3-3h-9"/>
<path class="st0" d="M424.8,571.1v-9"/>
<path class="st0" d="M155.7,559c1.5-0.1,3.2,1.5,3,3"/>
<path class="st0" d="M146.7,559h9"/>
<path class="st0" d="M158.7,562v9"/>
<path class="st0" d="M98.6,562c-0.1-1.5,1.5-3.2,3-3"/>
<path class="st0" d="M98.6,571.1v-9"/>
<path class="st0" d="M101.6,559h9"/>
<path class="st0" d="M443.6,163.8h-9"/>
<path class="st0" d="M359.4,163.8h-9"/>
<path class="st0" d="M164,163.8h9"/>
<path class="st0" d="M79.9,163.8h9"/>
<path class="st0" d="M364.7,620.6v-49.6"/>
<path class="st0" d="M376.7,559h36.1"/>
<path class="st0" d="M424.8,571.1v49.6"/>
<path class="st0" d="M101.9,566.5c-0.2-2.1,2.1-4.4,4.2-4.2c2.1-0.2,4.4,2.1,4.2,4.2c0.2,2.1-2.1,4.4-4.2,4.2
	C104.1,571,101.7,568.6,101.9,566.5z"/>
<path class="st0" d="M155.4,566.5c0.2-2.1-2.1-4.4-4.2-4.2c-2.1-0.2-4.4,2.1-4.2,4.2c-0.2,2.1,2.1,4.4,4.2,4.2
	C153.3,571,155.7,568.6,155.4,566.5z"/>
<path class="st0" d="M158.7,620.6v-49.6"/>
<path class="st0" d="M146.7,559h-36.1"/>
<path class="st0" d="M98.6,571.1v49.6"/>
<path class="st0" d="M368,566.5c-0.2-2.1,2.1-4.4,4.2-4.2c2.1-0.2,4.4,2.1,4.2,4.2c0.2,2.1-2.1,4.4-4.2,4.2
	C370.1,571,367.8,568.6,368,566.5z"/>
<path class="st0" d="M421.5,566.5c0.2-2.1-2.1-4.4-4.2-4.2c-2.1-0.2-4.4,2.1-4.2,4.2c-0.2,2.1,2.1,4.4,4.2,4.2
	C419.4,571,421.7,568.6,421.5,566.5z"/>
<path class="st1" d="M148.5,566.5c-0.1-1.3,1.4-2.8,2.7-2.7c1.3-0.1,2.8,1.4,2.7,2.7c0.1,1.3-1.4,2.8-2.7,2.7
	C149.9,569.4,148.4,567.9,148.5,566.5z"/>
<path class="st1" d="M374.9,566.5c0.1-1.3-1.4-2.8-2.7-2.7c-1.3-0.1-2.8,1.4-2.7,2.7c-0.1,1.3,1.4,2.8,2.7,2.7
	C373.5,569.4,375.1,567.9,374.9,566.5z"/>
<path class="st1" d="M414.6,566.5c-0.1-1.3,1.4-2.8,2.7-2.7c1.3-0.1,2.8,1.4,2.7,2.7c0.1,1.3-1.4,2.8-2.7,2.7
	C416,569.4,414.5,567.9,414.6,566.5z"/>
<path class="st1" d="M108.9,566.5c0.1-1.3-1.4-2.8-2.7-2.7c-1.3-0.1-2.8,1.4-2.7,2.7c-0.1,1.3,1.4,2.8,2.7,2.7
	C107.5,569.4,109,567.9,108.9,566.5z"/>
<path class="st0" d="M414.8,565.8v1.5"/>
<path class="st0" d="M418.1,564.1h-1.5l-1.7,1.7"/>
<path class="st0" d="M416.5,569h1.5"/>
<path class="st0" d="M418.1,565.8v-1.7"/>
<path class="st0" d="M374.7,567.3v-1.5"/>
<path class="st0" d="M419.8,567.3v-1.5"/>
<path class="st0" d="M105.4,564.1h1.5"/>
<path class="st0" d="M108.6,565.8v1.5"/>
<path class="st0" d="M106.9,565.8h1.7"/>
<path class="st0" d="M103.7,567.3v-1.5l1.7-1.7"/>
<path class="st0" d="M106.9,569h-1.5"/>
<path class="st0" d="M108.6,567.3h-1.7"/>
<path class="st0" d="M105.4,569v-1.7l1.5,1.7"/>
<path class="st0" d="M105.4,567.3h-1.7"/>
<path class="st0" d="M106.9,564.1v1.7"/>
<path class="st0" d="M103.7,565.8h1.7"/>
<path class="st0" d="M148.8,567.3v-1.5"/>
<path class="st0" d="M152,569h-1.5l-1.7-1.7l1.7-1.5l1.5-1.7v1.7l1.7,1.5"/>
<path class="st0" d="M152,565.8h1.7l-1.7,1.5v1.7"/>
<path class="st0" d="M150.5,565.8v-1.7"/>
<path class="st0" d="M150.5,569v-1.7"/>
<path class="st0" d="M369.7,567.3h1.7l-1.7-1.5"/>
<path class="st0" d="M371.5,564.1v1.7l-1.7,1.5"/>
<path class="st0" d="M374.7,565.8H373l-1.5-1.7"/>
<path class="st0" d="M373,567.3h1.7"/>
<path class="st0" d="M371.5,569h1.5v-1.7"/>
<path class="st0" d="M419.8,565.8h-1.7l1.7,1.5"/>
<path class="st0" d="M373,565.8v-1.7"/>
<path class="st0" d="M416.5,564.1v1.7"/>
<path class="st0" d="M418.1,569v-1.7"/>
<path class="st0" d="M371.5,567.3v1.7"/>
<path class="st0" d="M416.5,567.3v1.7"/>
<path class="st0" d="M414.8,567.3h1.7"/>
<path class="st0" d="M367.7,571.1h9"/>
<path class="st0" d="M367.7,571.1v49.6"/>
<path class="st0" d="M421.8,620.6v-49.6"/>
<path class="st0" d="M412.8,571.1h9"/>
<path class="st0" d="M412.8,562v9"/>
<path class="st0" d="M412.8,562h-36.1"/>
<path class="st0" d="M376.7,571.1v-9"/>
<path class="st0" d="M364.7,571.1h3"/>
<path class="st0" d="M376.7,562v-3"/>
<path class="st0" d="M412.8,559v3"/>
<path class="st0" d="M421.8,571.1h3"/>
<path class="st0" d="M155.7,571.1h-9v-9"/>
<path class="st0" d="M110.7,562h36.1"/>
<path class="st0" d="M110.7,571.1h-9"/>
<path class="st0" d="M110.7,562v9"/>
<path class="st0" d="M101.6,620.6v-49.6"/>
<path class="st0" d="M155.7,571.1v49.6"/>
<path class="st0" d="M146.7,562v-3"/>
<path class="st0" d="M158.7,571.1h-3"/>
<path class="st0" d="M110.7,559v3"/>
<path class="st0" d="M101.6,571.1h-3"/>
<path class="st0" d="M125.7,649.2c-0.2-1.5,1.5-3.2,3-3c1.5-0.2,3.2,1.5,3,3c0.2,1.5-1.5,3.2-3,3
	C127.2,652.4,125.5,650.7,125.7,649.2z"/>
<path class="st0" d="M397.8,649.2c0.2-1.5-1.5-3.2-3-3c-1.5-0.2-3.2,1.5-3,3c-0.2,1.5,1.5,3.2,3,3
	C396.2,652.4,397.9,650.7,397.8,649.2z"/>
<path class="st0" d="M132.9,649.2c0.2-2.1-2.1-4.4-4.2-4.2c-2.1-0.2-4.4,2.1-4.2,4.2c-0.2,2.1,2.1,4.4,4.2,4.2
	C130.8,653.6,133.1,651.3,132.9,649.2z"/>
<path class="st0" d="M390.5,649.2c-0.2-2.1,2.1-4.4,4.2-4.2c2.1-0.2,4.4,2.1,4.2,4.2c0.2,2.1-2.1,4.4-4.2,4.2
	C392.7,653.6,390.3,651.3,390.5,649.2z"/>
<path class="st0" d="M405.3,649.2c0.5-5.2-5.3-11-10.5-10.5c-5.2-0.5-11,5.3-10.5,10.5c-0.5,5.2,5.3,11,10.5,10.5
	C399.9,660.2,405.8,654.4,405.3,649.2z"/>
<path class="st0" d="M118.2,649.2c-0.5-5.2,5.3-11,10.5-10.5c5.2-0.5,11,5.3,10.5,10.5c0.5,5.2-5.3,11-10.5,10.5
	C123.5,660.2,117.7,654.4,118.2,649.2z"/>
<path class="st0" d="M382.7,649.2c-0.6-5.9,6.1-12.6,12-12c5.9-0.6,12.6,6.1,12,12c0.6,5.9-6.1,12.6-12,12
	C388.8,661.8,382.1,655.1,382.7,649.2z"/>
<path class="st0" d="M140.7,649.2c0.6-5.9-6.1-12.6-12-12c-5.9-0.6-12.6,6.1-12,12c-0.6,5.9,6.1,12.6,12,12
	C134.6,661.8,141.3,655.1,140.7,649.2z"/>
<path class="st0" d="M135.5,649.2c0.3-3.3-3.4-7.1-6.8-6.8c-3.3-0.3-7.1,3.4-6.8,6.8c-0.3,3.3,3.4,7.1,6.8,6.8
	C132,656.3,135.8,652.5,135.5,649.2z"/>
<path class="st0" d="M388,649.2c-0.3-3.3,3.4-7.1,6.8-6.8c3.3-0.3,7.1,3.4,6.8,6.8c0.3,3.3-3.4,7.1-6.8,6.8
	C391.4,656.3,387.6,652.5,388,649.2z"/>
<path class="st0" d="M124.2,649.2c-0.2-2.2,2.3-4.7,4.5-4.5c2.2-0.2,4.7,2.3,4.5,4.5c0.2,2.2-2.3,4.7-4.5,4.5
	C126.5,653.9,124,651.4,124.2,649.2z"/>
<path class="st0" d="M399.2,649.2c0.2-2.2-2.3-4.7-4.5-4.5c-2.2-0.2-4.7,2.3-4.5,4.5c-0.2,2.2,2.3,4.7,4.5,4.5
	C397,653.9,399.5,651.4,399.2,649.2z"/>
<path class="st0" d="M382.4,649.2c-0.6-6.1,6.3-12.9,12.3-12.3c6.1-0.6,12.9,6.3,12.3,12.3c0.6,6.1-6.3,12.9-12.3,12.3
	C388.7,662.1,381.8,655.3,382.4,649.2z"/>
<path class="st0" d="M141,649.2c0.6-6.1-6.3-12.9-12.3-12.3c-6.1-0.6-12.9,6.3-12.3,12.3c-0.6,6.1,6.3,12.9,12.3,12.3
	C134.8,662.1,141.7,655.3,141,649.2z"/>
<path class="st0" d="M355.7,716.8h78.1"/>
<path class="st0" d="M361.7,620.6l-6,6"/>
<path class="st0" d="M355.7,716.8v-90.2"/>
<path class="st0" d="M433.8,626.7v90.2"/>
<path class="st0" d="M433.8,626.7l-6-6h-66.1"/>
<path class="st0" d="M412.8,649.2c0.9-8.9-9.2-18.9-18-18c-8.9-0.9-18.9,9.2-18,18c-0.9,8.9,9.2,18.9,18,18
	C403.6,668.1,413.7,658.1,412.8,649.2z"/>
<path class="st0" d="M110.7,649.2c-0.9-8.9,9.2-18.9,18-18c8.9-0.9,18.9,9.2,18,18c0.9,8.9-9.2,18.9-18,18
	C119.8,668.1,109.8,658.1,110.7,649.2z"/>
<path class="st0" d="M167.8,716.8H89.6"/>
<path class="st0" d="M161.8,620.6l6,6"/>
<path class="st0" d="M167.8,716.8v-90.2"/>
<path class="st0" d="M89.6,626.7v90.2"/>
<path class="st0" d="M89.6,626.7l6-6h66.1"/>
<path class="st0" d="M433.8,716.8v6"/>
<path class="st0" d="M355.7,722.8v-6"/>
<path class="st0" d="M89.6,716.8v6"/>
<path class="st0" d="M167.8,722.8v-6"/>
<path class="st0" d="M164,163.8v-9"/>
<path class="st0" d="M88.9,154.8v9"/>
<path class="st0" d="M434.6,154.8v9"/>
<path class="st0" d="M359.4,163.8v-9"/>
<path class="st0" d="M517.2,154.8v-4.5"/>
<path class="st0" d="M6.2,150.3v4.5"/>
<path class="st0" d="M331.6,737.9v-15"/>
<path class="st0" d="M457.9,722.8v15"/>
<path class="st0" d="M65.6,722.8v15"/>
<path class="st0" d="M191.8,737.9v-15"/>
<path class="st0" d="M52.8,150.3v-9"/>
<path class="st0" d="M28.8,117.2h-9"/>
<path class="st0" d="M470.6,150.3v-9"/>
<path class="st0" d="M494.7,117.2h9"/>
<path class="st0" d="M511.2,154.8h6"/>
<path class="st0" d="M12.2,154.8h498.9"/>
<path class="st0" d="M6.2,154.8h6"/>
<path class="st0" d="M517.2,150.3h-6v4.5"/>
<path class="st0" d="M12.2,154.8v-4.5h-6"/>
<path class="st0" d="M12.2,150.3h498.9"/>
<path class="st0" d="M434.6,163.8h-9"/>
<path class="st0" d="M368.4,163.8h57.1"/>
<path class="st0" d="M368.4,163.8h-9"/>
<path class="st0" d="M15.3,150.3h4.5"/>
<path class="st0" d="M508.2,150.3h-4.5"/>
<path class="st0" d="M33.3,121.7l-4.5-4.5"/>
<path class="st0" d="M19.8,121.7h13.5l15,15"/>
<path class="st0" d="M425.5,154.8h-57.1"/>
<path class="st0" d="M52.8,141.2l-4.5-4.5v13.5H19.8"/>
<path class="st0" d="M490.2,121.7l4.5-4.5"/>
<path class="st0" d="M503.7,121.7h-13.5"/>
<path class="st0" d="M470.6,141.2l4.5-4.5"/>
<path class="st0" d="M490.2,121.7l-15,15v13.5h28.6"/>
<path class="st0" d="M155,163.8h9"/>
<path class="st0" d="M155,163.8H97.9"/>
<path class="st0" d="M88.9,163.8h9"/>
<path class="st0" d="M97.9,154.8H155"/>
<path class="st0" d="M97.9,163.8v-9"/>
<path class="st0" d="M155,154.8v9"/>
<path class="st0" d="M425.5,163.8v-9"/>
<path class="st0" d="M368.4,154.8v9"/>
<path class="st0" d="M331.6,722.8h6h114.2h6"/>
<path class="st0" d="M337.6,722.8v15"/>
<path class="st0" d="M451.9,737.9v-15"/>
<path class="st0" d="M71.6,722.8h-6"/>
<path class="st0" d="M185.8,722.8H71.6"/>
<path class="st0" d="M191.8,722.8h-6v15"/>
<path class="st0" d="M71.6,737.9v-15"/>
<path class="st0" d="M304.6,749.9h180.3"/>
<path class="st0" d="M304.6,737.9v12"/>
<path class="st0" d="M304.6,737.9h180.3v12"/>
<path class="st0" d="M218.9,737.9H38.5"/>
<path class="st0" d="M218.9,749.9H38.5"/>
<path class="st0" d="M218.9,737.9v12"/>
<path class="st0" d="M38.5,737.9v12"/>
<path class="st0" d="M19.8,30h-4.5"/>
<path class="st0" d="M503.7,30h4.5"/>
<path class="st0" d="M15.3,36v15l0,99.2"/>
<path class="st0" d="M15.3,30v6"/>
<path class="st0" d="M19.8,36v-6"/>
<path class="st0" d="M15.3,36h4.5"/>
<path class="st0" d="M19.8,51.1v99.2"/>
<path class="st0" d="M15.3,51.1h4.5"/>
<path class="st0" d="M19.8,36v15"/>
<path class="st0" d="M508.2,30v6v15v99.2"/>
<path class="st0" d="M503.7,36v-6"/>
<path class="st0" d="M508.2,36h-4.5"/>
<path class="st0" d="M508.2,51.1h-4.5l0,99.2"/>
<path class="st0" d="M503.7,36v15"/>
</svg>
