<svg width="36" height="36" viewBox="0 0 36 36" fill="none" xmlns="http://www.w3.org/2000/svg">
<path d="M32.625 4.5C34.4883 4.5 36 6.01102 36 7.875C36 8.93672 35.5008 9.93516 34.65 10.575L19.35 22.05C18.5484 22.6477 17.4516 22.6477 16.65 22.05L1.35 10.575C0.500133 9.93516 0 8.93672 0 7.875C0 6.01102 1.51102 4.5 3.375 4.5H32.625ZM15.3 23.85C16.9031 25.0523 19.0969 25.0523 20.7 23.85L36 12.375V27C36 29.482 33.982 31.5 31.5 31.5H4.5C2.01445 31.5 0 29.482 0 27V12.375L15.3 23.85Z" fill="#282828"/>
</svg>
