<svg width="44" height="52" viewBox="0 0 44 52" fill="none" xmlns="http://www.w3.org/2000/svg">
<path d="M39.9201 22.75H35.4189L32.7468 17.3418C31.4681 14.752 29.1274 12.8477 26.4298 12.1621L19.1532 10.0171C18.3859 9.83531 17.5266 9.74695 16.8514 9.74695C14.7154 9.74695 12.6233 10.4386 10.8914 11.7559L6.82597 14.8586C5.98814 15.4883 5.54824 16.4531 5.54824 17.4281C5.54824 19.1659 6.94669 20.6802 8.8239 20.6802C9.52036 20.6802 10.2223 20.461 10.8157 20.0082L14.8698 16.9227C15.4755 16.4669 16.2008 16.2334 16.8678 16.2334C17.0741 16.2334 17.275 16.2557 17.4653 16.3007L18.9609 16.7324L15.1247 25.6191C14.7645 26.4367 14.6008 27.3 14.6008 28.1531C14.6008 30.3966 15.7762 32.5731 17.8243 33.7685L26.5198 38.8598L23.7065 47.772C23.6055 48.0943 23.5574 48.4207 23.5574 48.7419C23.5574 50.1282 24.4532 51.414 25.855 51.8477C26.1709 51.9492 26.5085 52 26.8257 52C28.219 52 29.5111 51.1113 29.9458 49.7148L33.1939 39.457C33.3177 39.0225 33.3776 38.5811 33.3776 38.1438C33.3776 36.4609 32.4916 34.842 30.9684 33.9351L24.7148 30.2666L27.9117 22.3062L29.9833 26.521C30.8052 28.1734 32.5443 29.25 34.3038 29.25H39.9201C41.7226 29.25 43.1937 27.7895 43.1937 26C43.1937 24.2023 41.7206 22.75 39.9201 22.75ZM28.4625 9.75C31.1734 9.75 33.3729 7.56641 33.3729 4.875C33.3729 2.18359 31.1734 0 28.4625 0C25.7515 0 23.5521 2.18359 23.5521 4.875C23.5521 7.56641 25.7515 9.75 28.4625 9.75ZM12.2786 32.2461L10.7543 35.75H3.91042C2.10789 35.75 0.63681 37.2105 0.63681 39C0.63681 40.7895 2.10789 42.25 3.91042 42.25H11.8387C13.808 42.25 15.5726 41.082 16.3399 39.2925L17.2478 37.2105L16.1481 36.5757C14.386 35.5367 13.0765 34.0031 12.2786 32.2461Z" fill="#282828"/>
</svg>
