<svg width="30" height="39" viewBox="0 0 30 39" fill="none" xmlns="http://www.w3.org/2000/svg">
<g clip-path="url(#clip0_3_29)">
<path d="M0.375 4.875C0.375 2.18232 2.55732 0 5.25 0H24.75C27.4389 0 29.625 2.18232 29.625 4.875V26.8125H19.875C18.5268 26.8125 17.4375 27.9018 17.4375 29.25V39H5.25C2.55732 39 0.375 36.8139 0.375 34.125V4.875ZM13.4232 4.0135C12.951 3.53742 12.174 3.53742 11.7018 4.0135L4.3885 11.3268C3.91242 11.799 3.91242 12.576 4.3885 13.0482C4.86381 13.5281 5.63543 13.5281 6.1115 13.0482L13.4232 5.7365C13.9031 5.26119 13.9031 4.48957 13.4232 4.0135ZM20.7357 8.17324C21.2156 7.70098 21.2156 6.92631 20.7357 6.451C20.2635 5.97492 19.4865 5.97492 19.0143 6.451L6.826 18.6393C6.34992 19.1115 6.34992 19.8885 6.826 20.3607C7.30131 20.8406 8.07598 20.8406 8.54824 20.3607L20.7357 8.17324ZM29.625 29.25L19.875 39V29.25H29.625Z" fill="#282828"/>
</g>
<defs>
<clipPath id="clip0_3_29">
<rect x="0.375" width="29.25" height="39" rx="9" fill="white"/>
</clipPath>
</defs>
</svg>
