<svg width="48" height="48" viewBox="0 0 48 48" fill="none" xmlns="http://www.w3.org/2000/svg">
<path d="M13.9406 16.0594L6.01969 8.14031C3.35812 11.1553 1.43531 14.8322 0.554062 18.9028C1.81969 19.2563 3.12563 19.5 4.5 19.5C8.09437 19.5 11.3531 18.1781 13.9406 16.0594ZM18.2344 16.1156L24 21.8812L39.8625 6.01875C35.625 2.28469 30.0844 0 24 0C23.3062 0 22.6125 0.0461438 21.8531 0.104344C22.2938 1.51406 22.5 2.98125 22.5 4.5C22.5 8.92406 20.8875 12.975 18.2344 16.1156ZM19.5 4.5C19.5 3.12563 19.2541 1.81969 18.9062 0.554062C14.8313 1.43531 11.0719 3.35812 8.14031 6.01969L16.0603 13.9397C18.1781 11.3531 19.5 8.09437 19.5 4.5ZM16.1156 18.2344C12.975 20.8875 8.92406 22.5 4.5 22.5C2.98125 22.5 1.51406 22.2904 0.104062 21.9346C0.0461438 22.6125 0 23.3062 0 24C0 30.0872 2.28469 35.625 6.01969 39.8625L21.8812 24L16.1156 18.2344ZM29.7656 31.8844L24 26.1188L8.1375 41.9812C12.2906 45.7125 17.9156 48 24 48C24.6973 48 25.3828 47.9539 26.0653 47.8957C25.7062 46.4813 25.5 45.0187 25.5 43.5C25.5 39.075 27.1125 35.025 29.7656 31.8844ZM34.0594 31.9406L41.9794 39.8606C44.6409 36.8456 46.5637 33.1688 47.445 29.0981C46.1812 28.7437 44.8781 28.5 43.5 28.5C39.9094 28.5 36.6469 29.8219 34.0594 31.9406ZM41.9812 8.14031L26.1188 24L31.8862 29.7675C35.025 27.1125 39.075 25.5 43.5 25.5C45.0187 25.5 46.4859 25.7096 47.8959 26.0654C47.9531 25.3875 48 24.6938 48 24C48 17.9156 45.7125 12.2906 41.9812 8.14031ZM28.5 43.5C28.5 44.8744 28.7459 46.1803 29.0938 47.4459C33.1682 46.5647 36.8441 44.6419 39.8563 41.9803L31.9363 34.0603C29.8219 36.6469 28.5 39.9094 28.5 43.5Z" fill="#282828"/>
</svg>
