<svg width="54" height="44" viewBox="0 0 54 44" fill="none" xmlns="http://www.w3.org/2000/svg">
<g clip-path="url(#clip0_3_174)">
<path d="M34.9987 3.44146L24.1987 41.2423C23.7853 42.6767 22.2919 43.5036 20.8575 43.0986C19.4231 42.6851 18.5962 41.1917 19.0012 39.7573L29.8012 1.95815C30.2147 0.524279 31.7081 -0.305971 33.1425 0.103754C34.5769 0.513395 35.4037 2.00793 34.9987 3.44146ZM43.7569 10.2429L53.2069 19.6929C54.2616 20.7476 54.2616 22.452 53.2069 23.5067L43.7569 32.9567C42.7022 34.0114 40.9978 34.0114 39.9431 32.9567C38.8884 31.902 38.8884 30.1976 39.9431 29.1429L47.4778 21.5998L39.9431 14.0567C38.8884 13.002 38.8884 11.2976 39.9431 10.2429C40.9978 9.18824 42.7022 9.18824 43.7569 10.2429ZM14.0569 14.0567L6.51797 21.5998L14.0569 29.1429C15.1116 30.1976 15.1116 31.902 14.0569 32.9567C13.0022 34.0114 11.2978 34.0114 10.2431 32.9567L0.790762 23.5067C-0.263588 22.452 -0.263588 20.7476 0.790762 19.6929L10.2431 10.2429C11.2978 9.18824 13.0022 9.18824 14.0569 10.2429C15.1116 11.2976 15.1116 13.002 14.0569 14.0567Z" fill="#282828"/>
</g>
<defs>
<clipPath id="clip0_3_174">
<rect width="54" height="43.2" fill="white"/>
</clipPath>
</defs>
</svg>
