<svg width="69" height="43" viewBox="0 0 69 43" fill="none" xmlns="http://www.w3.org/2000/svg">
<path d="M48.3 0.875H20.7C9.26756 0.875 0 10.0166 0 21.5C0 32.9834 9.26756 42.125 20.7 42.125H48.3C59.7281 42.125 69 32.891 69 21.5C69 10.109 59.7281 0.875 48.3 0.875ZM26.6405 24.0781H23.1905V27.5156C23.1905 28.9336 22.0282 30.0938 20.6051 30.0938C19.182 30.0938 18.0155 28.9336 18.0155 27.5156V24.0781L14.6625 23.9814C13.2394 23.9814 11.978 22.918 11.978 21.5C11.978 20.082 13.1477 18.9208 14.5709 18.9208L18.0155 18.9219V15.4844C18.0155 14.0664 19.182 12.9062 20.6051 12.9062C22.0282 12.9062 23.1905 14.0664 23.1905 15.4844V18.9219H26.6405C28.0636 18.9219 29.2301 20.082 29.2301 21.5C29.228 22.918 28.1606 24.0781 26.6405 24.0781ZM46.478 30.9531C44.0932 30.9531 42.2625 29.0335 42.2625 26.7529C42.2625 24.4724 44.1891 22.4561 46.478 22.4561C48.7668 22.4561 50.6934 24.3768 50.6934 26.7529C50.6934 29.1291 48.9577 30.9531 46.478 30.9531ZM53.378 20.6406C50.9932 20.6406 49.1625 18.721 49.1625 16.4404C49.1625 14.1599 51.0891 12.1436 53.378 12.1436C55.7628 12.1436 57.5934 14.0643 57.5934 16.4404C57.5934 18.8166 55.8577 20.6406 53.378 20.6406Z" fill="#282828"/>
</svg>
