<svg width="57" height="58" viewBox="0 0 57 58" fill="none" xmlns="http://www.w3.org/2000/svg">
<g clip-path="url(#clip0_22_136)">
<path d="M19.1628 44.9161C19.1628 45.1421 18.9028 45.323 18.575 45.323C18.2021 45.3569 17.9421 45.176 17.9421 44.9161C17.9421 44.69 18.2021 44.5092 18.5298 44.5092C18.8689 44.4753 19.1628 44.6561 19.1628 44.9161ZM15.6477 44.4075C15.5686 44.6335 15.7946 44.8935 16.1337 44.9613C16.4276 45.0743 16.7667 44.9613 16.8345 44.7352C16.9023 44.5092 16.6875 44.2492 16.3485 44.1475C16.0546 44.0684 15.7268 44.1814 15.6477 44.4075ZM20.6434 44.2153C20.3156 44.2944 20.0896 44.5092 20.1235 44.7692C20.1574 44.9952 20.4513 45.1421 20.7903 45.063C21.1181 44.9839 21.3441 44.7692 21.3102 44.5431C21.2763 44.3284 20.9712 44.1814 20.6434 44.2153ZM28.0804 0.904297C12.4039 0.904297 0.411987 12.8058 0.411987 28.4823C0.411987 41.0167 8.30111 51.7428 19.5697 55.5178C21.0164 55.7778 21.525 54.8849 21.525 54.1502C21.525 53.4494 21.4911 49.584 21.4911 47.2105C21.4911 47.2105 13.5794 48.9059 11.9179 43.8424C11.9179 43.8424 10.6294 40.5533 8.77581 39.7056C8.77581 39.7056 6.18755 37.9312 8.95665 37.9651C8.95665 37.9651 11.771 38.1911 13.3194 40.8811C15.7946 45.2439 19.9426 43.9893 21.5589 43.2433C21.8189 41.4349 22.5535 40.1804 23.3673 39.4344C17.0492 38.7336 10.6746 37.8181 10.6746 26.9452C10.6746 23.837 11.5336 22.2773 13.342 20.288C13.0481 19.5534 12.0874 16.5243 13.6359 12.6136C15.9981 11.879 21.4346 15.6653 21.4346 15.6653C23.6951 15.0324 26.1251 14.7046 28.5325 14.7046C30.9399 14.7046 33.37 15.0324 35.6305 15.6653C35.6305 15.6653 41.067 11.8677 43.4292 12.6136C44.9776 16.5356 44.0169 19.5534 43.723 20.288C45.5314 22.2886 46.6391 23.8483 46.6391 26.9452C46.6391 37.852 39.9819 38.7223 33.6638 39.4344C34.7037 40.3273 35.5853 42.0227 35.5853 44.6787C35.5853 48.4877 35.5513 53.2008 35.5513 54.1276C35.5513 54.8623 36.0713 55.7551 37.5067 55.4952C48.8091 51.7428 56.4722 41.0167 56.4722 28.4823C56.4722 12.8058 43.7569 0.904297 28.0804 0.904297ZM11.398 39.8865C11.251 39.9995 11.285 40.2595 11.4771 40.4742C11.6579 40.6551 11.9179 40.7342 12.0648 40.5872C12.2118 40.4742 12.1779 40.2143 11.9857 39.9995C11.8049 39.8187 11.5449 39.7396 11.398 39.8865ZM10.1773 38.971C10.0982 39.1179 10.2112 39.2988 10.4373 39.4118C10.6181 39.5248 10.8442 39.4909 10.9233 39.3327C11.0024 39.1857 10.8894 39.0049 10.6633 38.8919C10.4373 38.8241 10.2564 38.858 10.1773 38.971ZM13.8393 42.9947C13.6585 43.1416 13.7263 43.4807 13.9862 43.6954C14.2462 43.9554 14.574 43.9893 14.7209 43.8084C14.8678 43.6615 14.8 43.3224 14.574 43.1077C14.3253 42.8477 13.9862 42.8138 13.8393 42.9947ZM12.5508 41.3332C12.37 41.4462 12.37 41.7401 12.5508 42C12.7317 42.26 13.0368 42.373 13.1838 42.26C13.3646 42.1131 13.3646 41.8192 13.1838 41.5593C13.0255 41.2993 12.7317 41.1863 12.5508 41.3332Z" fill="white"/>
</g>
<defs>
<clipPath id="clip0_22_136">
<rect width="56.0602" height="57.8686" fill="white" transform="translate(0.411987)"/>
</clipPath>
</defs>
</svg>
