<svg width="54" height="54" viewBox="0 0 54 54" fill="none" xmlns="http://www.w3.org/2000/svg">
<path d="M54 30.3645L53.9996 42.177C53.9051 46.8387 50.2137 50.625 45.5625 50.625C42.7707 50.625 40.5 48.3511 40.5 45.5562V32.073C40.5 29.2781 42.7676 27 45.5625 27C46.7047 27 47.7678 27.2872 48.7582 27.7043C47.4293 16.7801 38.1902 8.45121 27 8.45121C15.8098 8.45121 6.56965 16.7801 5.2418 27.7066C6.23215 27.2848 7.29527 27 8.4375 27C11.2324 27 13.5 29.2781 13.5 32.073V45.5625C13.5 48.3469 11.2324 50.625 8.4375 50.625C3.78527 50.625 0.0949219 46.8408 0.0949219 42.1812L0 30.375C0 15.4828 12.1078 3.375 27 3.375C41.8605 3.375 53.9578 15.4512 53.9051 30.3012C53.9051 30.3223 53.9051 30.3434 54 30.3645Z" fill="#282828"/>
</svg>
