<svg width="36" height="33" viewBox="0 0 36 33" fill="none" xmlns="http://www.w3.org/2000/svg">
<path d="M35.9875 16.4678C35.9875 17.6279 35.05 18.5367 33.9875 18.5367H31.9875L32.0312 28.8557C32.0312 29.0361 32.0187 29.2037 32 29.3777V30.4219C32 31.8463 30.8813 33 29.5 33H28.5C28.4312 33 28.3625 32.942 28.2938 32.9936C28.2063 32.942 28.1187 33 28.0312 33H24.5C23.1187 33 22 31.8463 22 30.4219V24.75C22 23.6092 21.1063 22.6875 20 22.6875H16C14.8938 22.6875 14 23.6092 14 24.75V30.4219C14 31.8463 12.8813 33 11.5 33H8.00625C7.9125 33 7.81875 32.9936 7.725 32.9871C7.65 32.9936 7.575 33 7.5 33H6.5C5.11938 33 4 31.8463 4 30.4219V23.2031C4 23.1451 4.00187 23.0807 4.00562 23.0227V18.5367H2.00312C0.87625 18.5367 0 17.6279 0 16.4678C0 15.8877 0.18775 15.3721 0.625625 14.9209L16.65 0.516656C17.0875 0.064582 17.5875 0 18.025 0C18.4625 0 18.9625 0.129164 19.3438 0.452074L35.3 14.9209C35.8 15.3721 36.0562 15.8877 35.9875 16.4678Z" fill="#282828"/>
</svg>
