<svg width="16" height="39" viewBox="0 0 16 39" fill="none" xmlns="http://www.w3.org/2000/svg">
<g clip-path="url(#clip0_3_27)">
<path d="M12.8961 34.125H10.4481V17.0625C10.4481 15.715 9.35182 14.625 8.00004 14.625H3.10394C1.75215 14.625 0.655884 15.715 0.655884 17.0625C0.655884 18.41 1.75215 19.4314 3.10394 19.4314H5.55199V34.0564H3.10394C1.75215 34.0564 0.655884 35.1465 0.655884 36.4939C0.655884 37.8414 1.75215 38.9314 3.10394 38.9314H12.8961C14.2479 38.9314 15.3442 37.8414 15.3442 36.4939C15.3442 35.1465 14.2502 34.125 12.8961 34.125ZM8.00004 9.75C10.0281 9.75 11.6721 8.11307 11.6721 6.09375C11.6721 4.07443 10.0273 2.43826 8.00004 2.43826C5.97275 2.43826 4.32796 4.07519 4.32796 6.09451C4.32796 8.11383 5.97198 9.75 8.00004 9.75Z" fill="#282828"/>
</g>
<defs>
<clipPath id="clip0_3_27">
<rect x="0.655884" width="14.6883" height="39" rx="7.34416" fill="white"/>
</clipPath>
</defs>
</svg>
