<svg width="51" height="58" viewBox="0 0 51 58" fill="none" xmlns="http://www.w3.org/2000/svg">
<g clip-path="url(#clip0_22_130)">
<path d="M25.3608 15.9364C18.1634 15.9364 12.3579 21.7346 12.3579 28.9229C12.3579 36.1113 18.1634 41.9094 25.3608 41.9094C32.5583 41.9094 38.3638 36.1113 38.3638 28.9229C38.3638 21.7346 32.5583 15.9364 25.3608 15.9364ZM25.3608 37.3659C20.7097 37.3659 16.9072 33.5795 16.9072 28.9229C16.9072 24.2663 20.6983 20.48 25.3608 20.48C30.0233 20.48 33.8145 24.2663 33.8145 28.9229C33.8145 33.5795 30.012 37.3659 25.3608 37.3659V37.3659ZM41.9286 15.4052C41.9286 17.0892 40.5706 18.4342 38.8957 18.4342C37.2095 18.4342 35.8628 17.0779 35.8628 15.4052C35.8628 13.7324 37.2208 12.3761 38.8957 12.3761C40.5706 12.3761 41.9286 13.7324 41.9286 15.4052ZM50.5406 18.4794C50.3482 14.4219 49.4203 10.8277 46.444 7.86643C43.479 4.90518 39.8802 3.97838 35.8175 3.77494C31.6303 3.53759 19.08 3.53759 14.8928 3.77494C10.8415 3.96708 7.24272 4.89388 4.26642 7.85513C1.29011 10.8164 0.373456 14.4106 0.169755 18.4681C-0.0678968 22.6501 -0.0678968 35.1845 0.169755 39.3664C0.36214 43.424 1.29011 47.0182 4.26642 49.9794C7.24272 52.9407 10.8301 53.8675 14.8928 54.0709C19.08 54.3083 31.6303 54.3083 35.8175 54.0709C39.8802 53.8788 43.479 52.952 46.444 49.9794C49.4089 47.0182 50.3369 43.424 50.5406 39.3664C50.7783 35.1845 50.7783 22.6614 50.5406 18.4794V18.4794ZM45.1312 43.8535C44.2485 46.0688 42.5397 47.7754 40.3103 48.6683C36.9718 49.9907 29.0501 49.6855 25.3608 49.6855C21.6716 49.6855 13.7385 49.9794 10.4114 48.6683C8.19333 47.7867 6.4845 46.0801 5.59048 43.8535C4.26642 40.5192 4.57197 32.6075 4.57197 28.9229C4.57197 25.2383 4.27774 17.3153 5.59048 13.9924C6.47319 11.7771 8.18201 10.0704 10.4114 9.17751C13.7499 7.85513 21.6716 8.16029 25.3608 8.16029C29.0501 8.16029 36.9831 7.86643 40.3103 9.17751C42.5284 10.0591 44.2372 11.7658 45.1312 13.9924C46.4553 17.3266 46.1497 25.2383 46.1497 28.9229C46.1497 32.6075 46.4553 40.5305 45.1312 43.8535Z" fill="white"/>
</g>
<defs>
<clipPath id="clip0_22_130">
<rect width="50.699" height="57.8686" fill="white"/>
</clipPath>
</defs>
</svg>
