<svg width="54" height="48" viewBox="0 0 54 48" fill="none" xmlns="http://www.w3.org/2000/svg">
<path d="M48.9286 0H4.97634C2.27052 0 0 2.27051 0 5.07141V42.2618C0 45.0627 2.27051 47.3332 4.97633 47.3332H48.9286C51.7295 47.3332 54 45.0627 54 42.2618V5.07141C54 2.27051 51.8235 0 48.9286 0ZM11.7382 39.7261C11.7382 40.1929 11.3598 40.5713 10.893 40.5713H5.82157C5.35479 40.5713 4.97634 40.1929 4.97634 39.7261V34.6547C4.97634 34.1879 5.35479 33.8094 5.82157 33.8094H10.7979C11.2647 33.8094 11.6431 34.1879 11.6431 34.6547L11.7382 39.7261ZM11.7382 26.2023C11.7382 26.6691 11.3598 27.0475 10.893 27.0475H5.82157C5.35479 27.0475 4.97634 26.6691 4.97634 26.2023V21.1309C4.97634 20.6641 5.35479 20.2857 5.82157 20.2857H10.7979C11.2647 20.2857 11.6431 20.6641 11.6431 21.1309V26.2023H11.7382ZM11.7382 12.6785C11.7382 13.1453 11.3598 13.5238 10.893 13.5238H5.82157C5.35479 13.5238 4.97634 13.1453 4.97634 12.6785V7.60712C4.97634 7.14034 5.35479 6.76189 5.82157 6.76189H10.7979C11.2647 6.76189 11.6431 7.14034 11.6431 7.60712L11.7382 12.6785ZM37.0953 38.8808C37.0953 39.8144 36.3384 40.5713 35.4048 40.5713H18.5001C17.5665 40.5713 16.8096 39.8144 16.8096 38.8808V28.738C16.8096 27.8042 17.5665 27.0475 18.5001 27.0475H35.4048C36.3384 27.0475 37.0953 27.8042 37.0953 28.738V38.8808ZM37.0953 18.5952C37.0953 19.5287 36.3384 20.2857 35.4048 20.2857H18.5001C17.5665 20.2857 16.8096 19.5287 16.8096 18.5952V8.45236C16.8096 7.51858 17.5665 6.76189 18.5001 6.76189H35.4048C36.3384 6.76189 37.0953 7.51858 37.0953 8.45236V18.5952ZM48.9286 39.7261C48.9286 40.1929 48.5501 40.5713 48.0834 40.5713H43.107C42.6403 40.5713 42.3569 40.1929 42.3569 39.7261V34.6547C42.3569 34.1879 42.7353 33.8094 43.2021 33.8094H48.1784C48.6452 33.8094 49.0237 34.1879 49.0237 34.6547V39.7261H48.9286ZM48.9286 26.2023C48.9286 26.6691 48.5501 27.0475 48.0834 27.0475H43.107C42.6403 27.0475 42.2618 26.6691 42.2618 26.2023V21.1309C42.2618 20.6641 42.6403 20.2857 43.107 20.2857H48.0834C48.5501 20.2857 48.9286 20.6641 48.9286 21.1309V26.2023ZM48.9286 12.6785C48.9286 13.1453 48.5501 13.5238 48.0834 13.5238H43.107C42.6403 13.5238 42.2618 13.1453 42.2618 12.6785V7.60712C42.2618 7.14034 42.6403 6.76189 43.0119 6.76189H47.9883C48.4551 6.76189 48.8335 7.14034 48.8335 7.60712V12.6785H48.9286Z" fill="#282828"/>
</svg>
